ReliefSingleLine-Regular.ufo
<glyph name="exclam" format="2">
	<advance width="340"/>
	<unicode hex="0021"/>
	<outline>
		<contour>
			<point x="170" y="190" type="move"/>
			<point x="170" y="680" type="line"/>
		</contour>
		<contour>
			<point x="170" y="90" type="move"/>
			<point x="170" y="-20" type="line"/>
		</contour>
	</outline>
</glyph>
<glyph name="quotedbl" format="2">
	<advance width="393"/>
	<unicode hex="0022"/>
	<outline>
		<contour>
			<point x="80" y="536" type="move"/>
			<point x="158" y="691" type="line"/>
			<point x="158" y="745" type="line"/>
			<point x="104" y="745" type="line"/>
		</contour>
		<contour>
			<point x="255" y="536" type="move"/>
			<point x="333" y="691" type="line"/>
			<point x="333" y="745" type="line"/>
			<point x="279" y="745" type="line"/>
		</contour>
	</outline>
</glyph>
<glyph name="quotesingle" format="2">
	<advance width="218"/>
	<unicode hex="0027"/>
	<outline>
		<contour>
			<point x="80" y="536" type="move"/>
			<point x="158" y="691" type="line"/>
			<point x="158" y="745" type="line"/>
			<point x="104" y="745" type="line"/>
		</contour>
	</outline>
</glyph>
<glyph name="E" format="2">
	<advance width="591"/>
	<unicode hex="0045"/>
	<outline>
		<contour>
			<point x="501" y="10" type="move"/>
			<point x="140" y="10" type="line"/>
			<point x="140" y="670" type="line"/>
			<point x="501" y="670" type="line"/>
		</contour>
		<contour>
			<point x="140" y="356" type="move"/>
			<point x="484" y="356" type="line"/>
		</contour>
	</outline>
</glyph>
<glyph name="L" format="2">
	<advance width="508"/>
	<unicode hex="004C"/>
	<outline>
		<contour>
			<point x="458" y="10" type="move"/>
			<point x="140" y="10" type="line"/>
			<point x="140" y="680" type="line"/>
		</contour>
	</outline>
</glyph>
<glyph name="i" format="2">
	<advance width="280"/>
	<unicode hex="0069"/>
	<guideline x="20" y="1971" angle="0"/>
	<outline>
		<contour>
			<point x="140" y="0" type="move"/>
			<point x="140" y="555" type="line"/>
		</contour>
		<contour>
			<point x="140" y="678" type="move"/>
			<point x="140" y="785" type="line"/>
		</contour>
	</outline>
</glyph>
<glyph name="j" format="2">
	<advance width="293"/>
	<unicode hex="006A"/>
	<outline>
		<contour>
			<point x="156" y="678" type="move"/>
			<point x="156" y="785" type="line"/>
		</contour>
		<contour>
			<point x="0" y="-165" type="move"/>
			<point x="15" y="-179"/>
			<point x="39" y="-190"/>
			<point x="72" y="-190" type="curve" smooth="yes"/>
			<point x="135" y="-190"/>
			<point x="158" y="-152"/>
			<point x="158" y="-83" type="curve" smooth="yes"/>
			<point x="158" y="555" type="line"/>
		</contour>
	</outline>
</glyph>
<glyph name="n" format="2">
	<advance width="608"/>
	<unicode hex="006E"/>
	<outline>
		<contour>
			<point x="140" y="555" type="move"/>
			<point x="140" y="0" type="line"/>
		</contour>
		<contour>
			<point x="473" y="0" type="move"/>
			<point x="473" y="415" type="line" smooth="yes"/>
			<point x="473" y="502"/>
			<point x="433" y="555"/>
			<point x="356" y="555" type="curve" smooth="yes"/>
			<point x="267" y="555"/>
			<point x="201" y="485"/>
			<point x="140" y="415" type="curve"/>
		</contour>
	</outline>
</glyph>
<glyph name="y" format="2">
	<advance width="538"/>
	<unicode hex="0079"/>
	<outline>
		<contour>
			<point x="276" y="-16" type="move"/>
			<point x="70" y="555" type="line"/>
		</contour>
		<contour>
			<point x="103" y="-175" type="move"/>
			<point x="119" y="-185"/>
			<point x="138" y="-190"/>
			<point x="156" y="-190" type="curve" smooth="yes"/>
			<point x="213" y="-190"/>
			<point x="242" y="-138"/>
			<point x="276" y="-16" type="curve"/>
			<point x="478" y="555" type="line"/>
		</contour>
	</outline>
</glyph>
<glyph name="exclamdown" format="2">
	<advance width="340"/>
	<unicode hex="00A1"/>
	<outline>
		<contour>
			<point x="170" y="365" type="move"/>
			<point x="170" y="-125" type="line"/>
		</contour>
		<contour>
			<point x="170" y="465" type="move"/>
			<point x="170" y="575" type="line"/>
		</contour>
	</outline>
</glyph>
<glyph name="dieresis" format="2">
	<advance width="164"/>
	<unicode hex="00A8"/>
	<outline>
		<contour>
			<point x="12" y="650" type="move"/>
			<point x="12" y="780" type="line"/>
			<point x="10" y="780" type="line"/>
		</contour>
		<contour>
			<point x="154" y="650" type="move"/>
			<point x="154" y="780" type="line"/>
			<point x="152" y="780" type="line"/>
		</contour>
	</outline>
</glyph>
<glyph name="ordfeminine" format="2">
	<advance width="331"/>
	<unicode hex="00AA"/>
	<outline>
		<contour>
			<point x="258" y="532" type="move"/>
			<point x="222" y="532" type="line" smooth="yes"/>
			<point x="100" y="532"/>
			<point x="50" y="500"/>
			<point x="50" y="432" type="curve" smooth="yes"/>
			<point x="50" y="388"/>
			<point x="76" y="347"/>
			<point x="133" y="347" type="curve" smooth="yes"/>
			<point x="185" y="347"/>
			<point x="225" y="381"/>
			<point x="258" y="425" type="curve" smooth="yes"/>
		</contour>
		<contour>
			<point x="261" y="347" type="move"/>
			<point x="259" y="369"/>
			<point x="258" y="405"/>
			<point x="258" y="430" type="curve" smooth="yes"/>
			<point x="258" y="574" type="line" smooth="yes"/>
			<point x="258" y="632"/>
			<point x="235" y="680"/>
			<point x="165" y="680" type="curve" smooth="yes"/>
			<point x="114" y="680"/>
			<point x="84" y="657"/>
			<point x="64" y="611" type="curve"/>
		</contour>
	</outline>
</glyph>
<glyph name="plusminus" format="2">
	<advance width="665"/>
	<unicode hex="00B1"/>
	<outline>
		<contour>
			<point x="100" y="0" type="move"/>
			<point x="565" y="0" type="line"/>
		</contour>
		<contour>
			<point x="331" y="152" type="move"/>
			<point x="331" y="524" type="line"/>
		</contour>
		<contour>
			<point x="100" y="341.6" type="move"/>
			<point x="565" y="341.6" type="line"/>
		</contour>
	</outline>
</glyph>
<glyph name="uni00B3" format="2">
	<advance width="283"/>
	<unicode hex="00B3"/>
	<outline>
		<contour>
			<point x="37.5" y="466.5" type="move"/>
			<point x="47" y="429.5"/>
			<point x="83" y="404.5"/>
			<point x="131.5" y="404.5" type="curve" smooth="yes"/>
			<point x="190.5" y="404.5"/>
			<point x="228" y="441.5"/>
			<point x="228" y="492.5" type="curve" smooth="yes"/>
			<point x="228" y="537"/>
			<point x="200" y="584.5"/>
			<point x="124.5" y="584.5" type="curve"/>
			<point x="109" y="584.5" type="line"/>
		</contour>
		<contour>
			<point x="124.5" y="584.5" type="move"/>
			<point x="191.5" y="584.5"/>
			<point x="223" y="623"/>
			<point x="223" y="668" type="curve" smooth="yes"/>
			<point x="223" y="709"/>
			<point x="196" y="745"/>
			<point x="136.5" y="745" type="curve" smooth="yes"/>
			<point x="88.5" y="745"/>
			<point x="59.5" y="721"/>
			<point x="45" y="694.5" type="curve"/>
		</contour>
	</outline>
</glyph>
<glyph name="periodcentered" format="2">
	<advance width="300"/>
	<unicode hex="00B7"/>
	<outline>
		<contour>
			<point x="150" y="365" type="move"/>
			<point x="150" y="255" type="line"/>
		</contour>
	</outline>
</glyph>
<glyph name="uni00B9" format="2">
	<advance width="224"/>
	<unicode hex="00B9"/>
	<outline>
		<contour>
			<point x="144" y="405" type="move"/>
			<point x="144" y="740" type="line"/>
			<point x="142" y="740" type="line"/>
			<point x="35" y="664.5" type="line"/>
		</contour>
	</outline>
</glyph>
<glyph name="guillemotright" format="2">
	<advance width="540"/>
	<unicode hex="00BB"/>
	<outline>
		<contour>
			<point x="102" y="485" type="move"/>
			<point x="260" y="286" type="line"/>
			<point x="260" y="276" type="line"/>
			<point x="100" y="77" type="line"/>
		</contour>
		<contour>
			<point x="322" y="485" type="move"/>
			<point x="480" y="286" type="line"/>
			<point x="480" y="276" type="line"/>
			<point x="320" y="77" type="line"/>
		</contour>
	</outline>
</glyph>
<glyph name="onehalf" format="2">
	<advance width="631"/>
	<unicode hex="00BD"/>
	<outline>
		<contour>
			<point x="114" y="0" type="move"/>
			<point x="471" y="680" type="line"/>
		</contour>
		<contour>
			<point x="144" y="340" type="move"/>
			<point x="144" y="675" type="line"/>
			<point x="142" y="675" type="line"/>
			<point x="35" y="599.5" type="line"/>
		</contour>
		<contour>
			<point x="588.5" y="0" type="move"/>
			<point x="388.5" y="0" type="line"/>
			<point x="388.5" y="2" type="line"/>
			<point x="500" y="124.5" type="line" smooth="yes"/>
			<point x="538" y="166.5"/>
			<point x="576" y="206"/>
			<point x="576" y="259.5" type="curve" smooth="yes"/>
			<point x="576" y="314"/>
			<point x="536.5" y="340"/>
			<point x="493" y="340" type="curve" smooth="yes"/>
			<point x="449" y="340"/>
			<point x="412.5" y="314"/>
			<point x="398" y="271" type="curve"/>
		</contour>
	</outline>
</glyph>
<glyph name="questiondown" format="2">
	<advance width="493"/>
	<unicode hex="00BF"/>
	<outline>
		<contour>
			<point x="268" y="365" type="move"/>
			<point x="268" y="313" type="line" smooth="yes"/>
			<point x="268" y="262"/>
			<point x="251" y="230"/>
			<point x="191" y="178" type="curve" smooth="yes"/>
			<point x="151" y="143"/>
			<point x="110" y="92"/>
			<point x="110" y="21" type="curve" smooth="yes"/>
			<point x="110" y="-62"/>
			<point x="166" y="-125"/>
			<point x="263" y="-125" type="curve" smooth="yes"/>
			<point x="329" y="-125"/>
			<point x="397" y="-95"/>
			<point x="423" y="-20" type="curve"/>
		</contour>
		<contour>
			<point x="268" y="465" type="move"/>
			<point x="268" y="575" type="line"/>
		</contour>
	</outline>
</glyph>
<glyph name="Atilde" format="2">
	<advance width="676"/>
	<unicode hex="00C3"/>
	<outline>
		<contour>
			<point x="155" y="213" type="move"/>
			<point x="522" y="213" type="line"/>
		</contour>
		<contour>
			<point x="606" y="0" type="move"/>
			<point x="342" y="675" type="line"/>
			<point x="338" y="675" type="line"/>
			<point x="70" y="0" type="line"/>
		</contour>
		<contour>
			<point x="201" y="812" type="move"/>
			<point x="223" y="849"/>
			<point x="250" y="860"/>
			<point x="275" y="860" type="curve" smooth="yes"/>
			<point x="322" y="860"/>
			<point x="352" y="812"/>
			<point x="405" y="812" type="curve" smooth="yes"/>
			<point x="430" y="812"/>
			<point x="456" y="821"/>
			<point x="479" y="859" type="curve"/>
		</contour>
	</outline>
</glyph>
<glyph name="Aring" format="2">
	<advance width="676"/>
	<unicode hex="00C5"/>
	<outline>
		<contour>
			<point x="155" y="213" type="move"/>
			<point x="522" y="213" type="line"/>
		</contour>
		<contour>
			<point x="606" y="0" type="move"/>
			<point x="342" y="675" type="line"/>
			<point x="338" y="675" type="line"/>
			<point x="70" y="0" type="line"/>
		</contour>
		<contour>
			<point x="339" y="916" type="move"/>
			<point x="298" y="916"/>
			<point x="266" y="883"/>
			<point x="266" y="843" type="curve" smooth="yes"/>
			<point x="266" y="803"/>
			<point x="299" y="770"/>
			<point x="339" y="770" type="curve" smooth="yes"/>
			<point x="380" y="770"/>
			<point x="413" y="803"/>
			<point x="413" y="843" type="curve" smooth="yes"/>
			<point x="413" y="883"/>
			<point x="380" y="916"/>
			<point x="339" y="916" type="curve"/>
		</contour>
	</outline>
</glyph>
<glyph name="Ccedilla" format="2">
	<advance width="665"/>
	<unicode hex="00C7"/>
	<outline>
		<contour>
			<point x="566" y="537" type="move"/>
			<point x="529" y="631"/>
			<point x="460" y="680"/>
			<point x="358" y="680" type="curve" smooth="yes"/>
			<point x="187" y="680"/>
			<point x="95" y="544"/>
			<point x="95" y="341" type="curve" smooth="yes"/>
			<point x="95" y="117"/>
			<point x="208" y="0"/>
			<point x="358" y="0" type="curve" smooth="yes"/>
			<point x="475" y="0"/>
			<point x="552" y="71"/>
			<point x="580" y="153" type="curve"/>
		</contour>
		<contour>
			<point x="272" y="-177" type="move" smooth="yes"/>
			<point x="285" y="-184"/>
			<point x="304" y="-191"/>
			<point x="333" y="-191" type="curve" smooth="yes"/>
			<point x="385" y="-191"/>
			<point x="417" y="-168"/>
			<point x="417" y="-132" type="curve" smooth="yes"/>
			<point x="417" y="-95"/>
			<point x="386" y="-78"/>
			<point x="332" y="-78" type="curve" smooth="yes"/>
			<point x="306" y="-78" type="line"/>
			<point x="352" y="0" type="line"/>
		</contour>
	</outline>
</glyph>
<glyph name="Egrave" format="2">
	<advance width="591"/>
	<unicode hex="00C8"/>
	<outline>
		<contour>
			<point x="501" y="10" type="move"/>
			<point x="140" y="10" type="line"/>
			<point x="140" y="670" type="line"/>
			<point x="501" y="670" type="line"/>
		</contour>
		<contour>
			<point x="140" y="356" type="move"/>
			<point x="484" y="356" type="line"/>
		</contour>
		<contour>
			<point x="248" y="916" type="move"/>
			<point x="383" y="783" type="line"/>
		</contour>
	</outline>
</glyph>
<glyph name="Igrave" format="2">
	<advance width="280"/>
	<unicode hex="00CC"/>
	<outline>
		<contour>
			<point x="140" y="0" type="move"/>
			<point x="140" y="680" type="line"/>
		</contour>
		<contour>
			<point x="72" y="916" type="move"/>
			<point x="207" y="783" type="line"/>
		</contour>
	</outline>
</glyph>
<glyph name="Icircumflex" format="2">
	<advance width="280"/>
	<unicode hex="00CE"/>
	<guideline x="131" y="-64" angle="0"/>
	<outline>
		<contour>
			<point x="140" y="0" type="move"/>
			<point x="140" y="680" type="line"/>
		</contour>
		<contour>
			<point x="251" y="773" type="move"/>
			<point x="142" y="899" type="line"/>
			<point x="138" y="899" type="line"/>
			<point x="29" y="773" type="line"/>
		</contour>
	</outline>
</glyph>
<glyph name="Idieresis" format="2">
	<advance width="280"/>
	<unicode hex="00CF"/>
	<outline>
		<contour>
			<point x="140" y="0" type="move"/>
			<point x="140" y="680" type="line"/>
		</contour>
		<contour>
			<point x="69" y="785" type="move"/>
			<point x="69" y="910" type="line"/>
		</contour>
		<contour>
			<point x="211" y="785" type="move"/>
			<point x="211" y="910" type="line"/>
		</contour>
	</outline>
</glyph>
<glyph name="Ntilde" format="2">
	<advance width="740"/>
	<unicode hex="00D1"/>
	<outline>
		<contour>
			<point x="140" y="0" type="move"/>
			<point x="140" y="675" type="line"/>
			<point x="144" y="675" type="line"/>
			<point x="596" y="5" type="line"/>
			<point x="600" y="5" type="line"/>
			<point x="599" y="680" type="line"/>
		</contour>
		<contour>
			<point x="231" y="812" type="move"/>
			<point x="253" y="849"/>
			<point x="280" y="860"/>
			<point x="305" y="860" type="curve" smooth="yes"/>
			<point x="352" y="860"/>
			<point x="382" y="812"/>
			<point x="435" y="812" type="curve" smooth="yes"/>
			<point x="460" y="812"/>
			<point x="486" y="821"/>
			<point x="509" y="859" type="curve"/>
		</contour>
	</outline>
</glyph>
<glyph name="Odieresis" format="2">
	<advance width="716"/>
	<unicode hex="00D6"/>
	<outline>
		<contour>
			<point x="357" y="680" type="move"/>
			<point x="168" y="680"/>
			<point x="95" y="501"/>
			<point x="95" y="341" type="curve" smooth="yes"/>
			<point x="95" y="207"/>
			<point x="147" y="0"/>
			<point x="358" y="0" type="curve" smooth="yes"/>
			<point x="569" y="0"/>
			<point x="621" y="207"/>
			<point x="621" y="341" type="curve" smooth="yes"/>
			<point x="621" y="501"/>
			<point x="548" y="680"/>
			<point x="359" y="680" type="curve"/>
		</contour>
		<contour>
			<point x="287" y="785" type="move"/>
			<point x="287" y="910" type="line"/>
		</contour>
		<contour>
			<point x="429" y="785" type="move"/>
			<point x="429" y="910" type="line"/>
		</contour>
	</outline>
</glyph>
<glyph name="Oslash" format="2">
	<advance width="716"/>
	<unicode hex="00D8"/>
	<outline>
		<contour>
			<point x="124" y="-20" type="move"/>
			<point x="603" y="700" type="line"/>
		</contour>
		<contour>
			<point x="357" y="680" type="move"/>
			<point x="168" y="680"/>
			<point x="95" y="501"/>
			<point x="95" y="341" type="curve" smooth="yes"/>
			<point x="95" y="207"/>
			<point x="147" y="0"/>
			<point x="358" y="0" type="curve" smooth="yes"/>
			<point x="569" y="0"/>
			<point x="621" y="207"/>
			<point x="621" y="341" type="curve" smooth="yes"/>
			<point x="621" y="501"/>
			<point x="548" y="680"/>
			<point x="359" y="680" type="curve"/>
		</contour>
	</outline>
</glyph>
<glyph name="Ugrave" format="2">
	<advance width="694"/>
	<unicode hex="00D9"/>
	<outline>
		<contour>
			<point x="130" y="680" type="move"/>
			<point x="130" y="245" type="line" smooth="yes"/>
			<point x="130" y="87"/>
			<point x="218" y="0"/>
			<point x="347" y="0" type="curve" smooth="yes"/>
			<point x="482" y="0"/>
			<point x="564" y="87"/>
			<point x="564" y="245" type="curve" smooth="yes"/>
			<point x="564" y="680" type="line"/>
		</contour>
		<contour>
			<point x="278" y="916" type="move"/>
			<point x="413" y="783" type="line"/>
		</contour>
	</outline>
</glyph>
<glyph name="Ucircumflex" format="2">
	<advance width="694"/>
	<unicode hex="00DB"/>
	<guideline x="337" y="-64" angle="0"/>
	<outline>
		<contour>
			<point x="130" y="680" type="move"/>
			<point x="130" y="245" type="line" smooth="yes"/>
			<point x="130" y="87"/>
			<point x="218" y="0"/>
			<point x="347" y="0" type="curve" smooth="yes"/>
			<point x="482" y="0"/>
			<point x="564" y="87"/>
			<point x="564" y="245" type="curve" smooth="yes"/>
			<point x="564" y="680" type="line"/>
		</contour>
		<contour>
			<point x="457" y="773" type="move"/>
			<point x="348" y="899" type="line"/>
			<point x="344" y="899" type="line"/>
			<point x="235" y="773" type="line"/>
		</contour>
	</outline>
</glyph>
<glyph name="Udieresis" format="2">
	<advance width="694"/>
	<unicode hex="00DC"/>
	<outline>
		<contour>
			<point x="130" y="680" type="move"/>
			<point x="130" y="245" type="line" smooth="yes"/>
			<point x="130" y="87"/>
			<point x="218" y="0"/>
			<point x="347" y="0" type="curve" smooth="yes"/>
			<point x="482" y="0"/>
			<point x="564" y="87"/>
			<point x="564" y="245" type="curve" smooth="yes"/>
			<point x="564" y="680" type="line"/>
		</contour>
		<contour>
			<point x="275" y="785" type="move"/>
			<point x="275" y="910" type="line"/>
		</contour>
		<contour>
			<point x="417" y="785" type="move"/>
			<point x="417" y="910" type="line"/>
		</contour>
	</outline>
</glyph>
<glyph name="atilde" format="2">
	<advance width="561"/>
	<unicode hex="00E3"/>
	<outline>
		<contour>
			<point x="437" y="308" type="move"/>
			<point x="376" y="308" type="line" smooth="yes"/>
			<point x="174" y="308"/>
			<point x="90" y="255"/>
			<point x="90" y="141" type="curve" smooth="yes"/>
			<point x="90" y="68"/>
			<point x="134" y="0"/>
			<point x="229" y="0" type="curve" smooth="yes"/>
			<point x="315" y="0"/>
			<point x="382" y="57"/>
			<point x="437" y="130" type="curve" smooth="yes"/>
		</contour>
		<contour>
			<point x="441" y="0" type="move"/>
			<point x="438" y="37"/>
			<point x="437" y="97"/>
			<point x="437" y="138" type="curve" smooth="yes"/>
			<point x="437" y="378" type="line" smooth="yes"/>
			<point x="437" y="475"/>
			<point x="398" y="555"/>
			<point x="282" y="555" type="curve" smooth="yes"/>
			<point x="197" y="555"/>
			<point x="147" y="516"/>
			<point x="114" y="440" type="curve"/>
		</contour>
		<contour>
			<point x="142" y="687" type="move"/>
			<point x="164" y="724"/>
			<point x="191" y="735"/>
			<point x="216" y="735" type="curve" smooth="yes"/>
			<point x="263" y="735"/>
			<point x="293" y="687"/>
			<point x="346" y="687" type="curve" smooth="yes"/>
			<point x="371" y="687"/>
			<point x="397" y="696"/>
			<point x="420" y="734" type="curve"/>
		</contour>
	</outline>
</glyph>
<glyph name="ccedilla" format="2">
	<advance width="531"/>
	<unicode hex="00E7"/>
	<outline>
		<contour>
			<point x="445" y="450" type="move"/>
			<point x="423" y="504"/>
			<point x="372" y="555"/>
			<point x="289" y="555" type="curve" smooth="yes"/>
			<point x="163" y="555"/>
			<point x="90" y="439"/>
			<point x="90" y="271" type="curve" smooth="yes"/>
			<point x="90" y="107"/>
			<point x="160" y="0"/>
			<point x="290" y="0" type="curve" smooth="yes"/>
			<point x="368" y="0"/>
			<point x="411" y="38"/>
			<point x="446" y="98" type="curve" smooth="yes"/>
		</contour>
		<contour>
			<point x="201" y="-177" type="move" smooth="yes"/>
			<point x="214" y="-184"/>
			<point x="233" y="-191"/>
			<point x="262" y="-191" type="curve" smooth="yes"/>
			<point x="314" y="-191"/>
			<point x="346" y="-168"/>
			<point x="346" y="-132" type="curve" smooth="yes"/>
			<point x="346" y="-95"/>
			<point x="315" y="-78"/>
			<point x="261" y="-78" type="curve" smooth="yes"/>
			<point x="235" y="-78" type="line"/>
			<point x="281" y="0" type="line"/>
		</contour>
	</outline>
</glyph>
<glyph name="ecircumflex" format="2">
	<advance width="561"/>
	<unicode hex="00EA"/>
	<guideline x="272" y="-64" angle="0"/>
	<guideline y="78"/>
	<guideline y="68"/>
	<guideline y="50"/>
	<outline>
		<contour>
			<point x="92" y="305" type="move"/>
			<point x="476" y="305" type="line"/>
			<point x="476" y="417"/>
			<point x="439" y="555"/>
			<point x="294" y="555" type="curve" smooth="yes"/>
			<point x="169" y="555"/>
			<point x="90" y="451"/>
			<point x="90" y="275" type="curve" smooth="yes"/>
			<point x="90" y="116"/>
			<point x="154" y="0"/>
			<point x="297" y="0" type="curve" smooth="yes"/>
			<point x="391" y="0"/>
			<point x="443" y="51"/>
			<point x="468" y="110" type="curve" smooth="yes"/>
		</contour>
		<contour>
			<point x="406" y="648" type="move"/>
			<point x="297" y="774" type="line"/>
			<point x="293" y="774" type="line"/>
			<point x="184" y="648" type="line"/>
		</contour>
	</outline>
</glyph>
<glyph name="edieresis" format="2">
	<advance width="561"/>
	<unicode hex="00EB"/>
	<outline>
		<contour>
			<point x="92" y="305" type="move"/>
			<point x="476" y="305" type="line"/>
			<point x="476" y="417"/>
			<point x="439" y="555"/>
			<point x="294" y="555" type="curve" smooth="yes"/>
			<point x="169" y="555"/>
			<point x="90" y="451"/>
			<point x="90" y="275" type="curve" smooth="yes"/>
			<point x="90" y="116"/>
			<point x="154" y="0"/>
			<point x="297" y="0" type="curve" smooth="yes"/>
			<point x="391" y="0"/>
			<point x="443" y="51"/>
			<point x="468" y="110" type="curve" smooth="yes"/>
		</contour>
		<contour>
			<point x="224" y="660" type="move"/>
			<point x="224" y="785" type="line"/>
		</contour>
		<contour>
			<point x="366" y="660" type="move"/>
			<point x="366" y="785" type="line"/>
		</contour>
	</outline>
</glyph>
<glyph name="iacute" format="2">
	<advance width="280"/>
	<unicode hex="00ED"/>
	<outline>
		<contour>
			<point x="140" y="0" type="move"/>
			<point x="140" y="555" type="line"/>
		</contour>
		<contour>
			<point x="72" y="657" type="move"/>
			<point x="207" y="790" type="line"/>
		</contour>
	</outline>
</glyph>
<glyph name="otilde" format="2">
	<advance width="592"/>
	<unicode hex="00F5"/>
	<outline>
		<contour>
			<point x="295" y="555" type="move"/>
			<point x="131" y="555"/>
			<point x="90" y="384"/>
			<point x="90" y="275" type="curve" smooth="yes"/>
			<point x="90" y="140"/>
			<point x="152" y="0"/>
			<point x="296" y="0" type="curve" smooth="yes"/>
			<point x="440" y="0"/>
			<point x="502" y="140"/>
			<point x="502" y="275" type="curve" smooth="yes"/>
			<point x="502" y="384"/>
			<point x="461" y="555"/>
			<point x="297" y="555" type="curve"/>
		</contour>
		<contour>
			<point x="156" y="687" type="move"/>
			<point x="178" y="724"/>
			<point x="205" y="735"/>
			<point x="230" y="735" type="curve" smooth="yes"/>
			<point x="277" y="735"/>
			<point x="307" y="687"/>
			<point x="360" y="687" type="curve" smooth="yes"/>
			<point x="385" y="687"/>
			<point x="411" y="696"/>
			<point x="434" y="734" type="curve"/>
		</contour>
	</outline>
</glyph>
<glyph name="oslash" format="2">
	<advance width="592"/>
	<unicode hex="00F8"/>
	<outline>
		<contour>
			<point x="113" y="-20" type="move"/>
			<point x="480" y="575" type="line"/>
		</contour>
		<contour>
			<point x="295" y="555" type="move"/>
			<point x="131" y="555"/>
			<point x="90" y="384"/>
			<point x="90" y="275" type="curve" smooth="yes"/>
			<point x="90" y="140"/>
			<point x="152" y="0"/>
			<point x="296" y="0" type="curve" smooth="yes"/>
			<point x="440" y="0"/>
			<point x="502" y="140"/>
			<point x="502" y="275" type="curve" smooth="yes"/>
			<point x="502" y="384"/>
			<point x="461" y="555"/>
			<point x="297" y="555" type="curve"/>
		</contour>
	</outline>
</glyph>
<glyph name="thorn" format="2">
	<advance width="613"/>
	<unicode hex="00FE"/>
	<outline>
		<contour>
			<point x="140" y="-190" type="move"/>
			<point x="140" y="745" type="line"/>
		</contour>
		<contour>
			<point x="140" y="137" type="move"/>
			<point x="183" y="52"/>
			<point x="248" y="0"/>
			<point x="333" y="0" type="curve" smooth="yes"/>
			<point x="469" y="0"/>
			<point x="523" y="132"/>
			<point x="523" y="279" type="curve" smooth="yes"/>
			<point x="523" y="447"/>
			<point x="456" y="555"/>
			<point x="334" y="555" type="curve" smooth="yes"/>
			<point x="261" y="555"/>
			<point x="194" y="517"/>
			<point x="140" y="421" type="curve"/>
		</contour>
	</outline>
</glyph>
<glyph name="abreve" format="2">
	<advance width="561"/>
	<unicode hex="0103"/>
	<outline>
		<contour>
			<point x="437" y="308" type="move"/>
			<point x="376" y="308" type="line" smooth="yes"/>
			<point x="174" y="308"/>
			<point x="90" y="255"/>
			<point x="90" y="141" type="curve" smooth="yes"/>
			<point x="90" y="68"/>
			<point x="134" y="0"/>
			<point x="229" y="0" type="curve" smooth="yes"/>
			<point x="315" y="0"/>
			<point x="382" y="57"/>
			<point x="437" y="130" type="curve" smooth="yes"/>
		</contour>
		<contour>
			<point x="441" y="0" type="move"/>
			<point x="438" y="37"/>
			<point x="437" y="97"/>
			<point x="437" y="138" type="curve" smooth="yes"/>
			<point x="437" y="378" type="line" smooth="yes"/>
			<point x="437" y="475"/>
			<point x="398" y="555"/>
			<point x="282" y="555" type="curve" smooth="yes"/>
			<point x="197" y="555"/>
			<point x="147" y="516"/>
			<point x="114" y="440" type="curve"/>
		</contour>
		<contour>
			<point x="161" y="762" type="move"/>
			<point x="161" y="707"/>
			<point x="213" y="680"/>
			<point x="279" y="680" type="curve" smooth="yes"/>
			<point x="345" y="680"/>
			<point x="401" y="706"/>
			<point x="401" y="761" type="curve" smooth="yes"/>
		</contour>
	</outline>
</glyph>
<glyph name="Ccaron" format="2">
	<advance width="665"/>
	<unicode hex="010C"/>
	<outline>
		<contour>
			<point x="566" y="537" type="move"/>
			<point x="529" y="631"/>
			<point x="460" y="680"/>
			<point x="358" y="680" type="curve" smooth="yes"/>
			<point x="187" y="680"/>
			<point x="95" y="544"/>
			<point x="95" y="341" type="curve" smooth="yes"/>
			<point x="95" y="117"/>
			<point x="208" y="0"/>
			<point x="358" y="0" type="curve" smooth="yes"/>
			<point x="475" y="0"/>
			<point x="552" y="71"/>
			<point x="580" y="153" type="curve"/>
		</contour>
		<contour>
			<point x="246" y="901" type="move"/>
			<point x="355" y="775" type="line"/>
			<point x="359" y="775" type="line"/>
			<point x="468" y="901" type="line"/>
		</contour>
	</outline>
</glyph>
<glyph name="Dcaron" format="2">
	<advance width="693"/>
	<unicode hex="010E"/>
	<outline>
		<contour>
			<point x="140" y="10" type="move"/>
			<point x="140" y="670" type="line"/>
		</contour>
		<contour>
			<point x="140" y="10" type="move"/>
			<point x="260" y="10" type="line" smooth="yes"/>
			<point x="440" y="10"/>
			<point x="607" y="103"/>
			<point x="608" y="339" type="curve" smooth="yes"/>
			<point x="609" y="543"/>
			<point x="484" y="670"/>
			<point x="287" y="670" type="curve" smooth="yes"/>
			<point x="140" y="670" type="line"/>
		</contour>
		<contour>
			<point x="243" y="901" type="move"/>
			<point x="352" y="775" type="line"/>
			<point x="356" y="775" type="line"/>
			<point x="465" y="901" type="line"/>
		</contour>
	</outline>
</glyph>
<glyph name="Dcroat" format="2">
	<advance width="713"/>
	<unicode hex="0110"/>
	<outline>
		<contour>
			<point x="45" y="357" type="move"/>
			<point x="387" y="357" type="line"/>
		</contour>
		<contour>
			<point x="160" y="10" type="move"/>
			<point x="160" y="670" type="line"/>
		</contour>
		<contour>
			<point x="160" y="10" type="move"/>
			<point x="280" y="10" type="line" smooth="yes"/>
			<point x="460" y="10"/>
			<point x="627" y="103"/>
			<point x="628" y="339" type="curve" smooth="yes"/>
			<point x="629" y="543"/>
			<point x="504" y="670"/>
			<point x="307" y="670" type="curve" smooth="yes"/>
			<point x="160" y="670" type="line"/>
		</contour>
	</outline>
</glyph>
<glyph name="dcroat" format="2">
	<advance width="610"/>
	<unicode hex="0111"/>
	<outline>
		<contour>
			<point x="565" y="644" type="move"/>
			<point x="337" y="644" type="line"/>
		</contour>
		<contour>
			<point x="473" y="745" type="move"/>
			<point x="473" y="0" type="line"/>
		</contour>
		<contour>
			<point x="473" y="421" type="move"/>
			<point x="419" y="517"/>
			<point x="352" y="555"/>
			<point x="279" y="555" type="curve" smooth="yes"/>
			<point x="157" y="555"/>
			<point x="90" y="447"/>
			<point x="90" y="279" type="curve" smooth="yes"/>
			<point x="90" y="132"/>
			<point x="144" y="0"/>
			<point x="280" y="0" type="curve" smooth="yes"/>
			<point x="365" y="0"/>
			<point x="430" y="52"/>
			<point x="473" y="137" type="curve"/>
		</contour>
	</outline>
</glyph>
<glyph name="Ebreve" format="2">
	<advance width="591"/>
	<unicode hex="0114"/>
	<outline>
		<contour>
			<point x="501" y="10" type="move"/>
			<point x="140" y="10" type="line"/>
			<point x="140" y="670" type="line"/>
			<point x="501" y="670" type="line"/>
		</contour>
		<contour>
			<point x="140" y="356" type="move"/>
			<point x="484" y="356" type="line"/>
		</contour>
		<contour>
			<point x="196" y="887" type="move"/>
			<point x="196" y="832"/>
			<point x="248" y="805"/>
			<point x="314" y="805" type="curve" smooth="yes"/>
			<point x="380" y="805"/>
			<point x="436" y="831"/>
			<point x="436" y="886" type="curve" smooth="yes"/>
		</contour>
	</outline>
</glyph>
<glyph name="Eogonek" format="2">
	<advance width="591"/>
	<unicode hex="0118"/>
	<outline>
		<contour>
			<point x="501" y="10" type="move"/>
			<point x="140" y="10" type="line"/>
			<point x="140" y="670" type="line"/>
			<point x="501" y="670" type="line"/>
		</contour>
		<contour>
			<point x="140" y="356" type="move"/>
			<point x="484" y="356" type="line"/>
		</contour>
		<contour>
			<point x="482" y="-174" type="move" smooth="yes"/>
			<point x="469" y="-182"/>
			<point x="444" y="-190"/>
			<point x="420" y="-190" type="curve" smooth="yes"/>
			<point x="370" y="-190"/>
			<point x="343" y="-165"/>
			<point x="343" y="-120" type="curve" smooth="yes"/>
			<point x="343" y="-77"/>
			<point x="394" y="-28"/>
			<point x="441" y="10" type="curve"/>
		</contour>
	</outline>
</glyph>
<glyph name="Gbreve" format="2">
	<advance width="676"/>
	<unicode hex="011E"/>
	<outline>
		<contour>
			<point x="566" y="537" type="move"/>
			<point x="529" y="631"/>
			<point x="460" y="680"/>
			<point x="358" y="680" type="curve" smooth="yes"/>
			<point x="196" y="680"/>
			<point x="95" y="556"/>
			<point x="95" y="340" type="curve" smooth="yes"/>
			<point x="95" y="152"/>
			<point x="169" y="0"/>
			<point x="363" y="0" type="curve" smooth="yes"/>
			<point x="443" y="0"/>
			<point x="509" y="26"/>
			<point x="560" y="57" type="curve"/>
			<point x="560" y="334" type="line"/>
			<point x="383" y="334" type="line"/>
		</contour>
		<contour>
			<point x="236" y="887" type="move"/>
			<point x="236" y="832"/>
			<point x="288" y="805"/>
			<point x="354" y="805" type="curve" smooth="yes"/>
			<point x="420" y="805"/>
			<point x="476" y="831"/>
			<point x="476" y="886" type="curve" smooth="yes"/>
		</contour>
	</outline>
</glyph>
<glyph name="gbreve" format="2">
	<advance width="608"/>
	<unicode hex="011F"/>
	<outline>
		<contour>
			<point x="473" y="421" type="move"/>
			<point x="419" y="517"/>
			<point x="352" y="555"/>
			<point x="280" y="555" type="curve" smooth="yes"/>
			<point x="157" y="555"/>
			<point x="90" y="447"/>
			<point x="90" y="289" type="curve" smooth="yes"/>
			<point x="90" y="147"/>
			<point x="144" y="20"/>
			<point x="280" y="20" type="curve" smooth="yes"/>
			<point x="365" y="20"/>
			<point x="430" y="68"/>
			<point x="473" y="147" type="curve"/>
		</contour>
		<contour>
			<point x="127" y="-107" type="move"/>
			<point x="161" y="-164"/>
			<point x="218" y="-190"/>
			<point x="292" y="-190" type="curve" smooth="yes"/>
			<point x="407" y="-190"/>
			<point x="473" y="-126"/>
			<point x="473" y="-2" type="curve" smooth="yes"/>
			<point x="473" y="555" type="line"/>
		</contour>
		<contour>
			<point x="188" y="762" type="move"/>
			<point x="188" y="707"/>
			<point x="240" y="680"/>
			<point x="306" y="680" type="curve" smooth="yes"/>
			<point x="372" y="680"/>
			<point x="428" y="706"/>
			<point x="428" y="761" type="curve" smooth="yes"/>
		</contour>
	</outline>
</glyph>
<glyph name="uni0123" format="2">
	<advance width="608"/>
	<unicode hex="0123"/>
	<outline>
		<contour>
			<point x="473" y="421" type="move"/>
			<point x="419" y="517"/>
			<point x="352" y="555"/>
			<point x="280" y="555" type="curve" smooth="yes"/>
			<point x="157" y="555"/>
			<point x="90" y="447"/>
			<point x="90" y="289" type="curve" smooth="yes"/>
			<point x="90" y="147"/>
			<point x="144" y="20"/>
			<point x="280" y="20" type="curve" smooth="yes"/>
			<point x="365" y="20"/>
			<point x="430" y="68"/>
			<point x="473" y="147" type="curve"/>
		</contour>
		<contour>
			<point x="127" y="-107" type="move"/>
			<point x="161" y="-164"/>
			<point x="218" y="-190"/>
			<point x="292" y="-190" type="curve" smooth="yes"/>
			<point x="407" y="-190"/>
			<point x="473" y="-126"/>
			<point x="473" y="-2" type="curve" smooth="yes"/>
			<point x="473" y="555" type="line"/>
		</contour>
		<contour>
			<point x="347" y="802" type="move"/>
			<point x="269" y="647" type="line"/>
		</contour>
	</outline>
</glyph>
<glyph name="imacron" format="2">
	<advance width="280"/>
	<unicode hex="012B"/>
	<outline>
		<contour>
			<point x="140" y="0" type="move"/>
			<point x="140" y="555" type="line"/>
		</contour>
		<contour>
			<point x="250" y="703" type="move"/>
			<point x="29" y="703" type="line"/>
		</contour>
	</outline>
</glyph>
<glyph name="ibreve" format="2">
	<advance width="280"/>
	<unicode hex="012D"/>
	<outline>
		<contour>
			<point x="140" y="0" type="move"/>
			<point x="140" y="555" type="line"/>
		</contour>
		<contour>
			<point x="20" y="762" type="move"/>
			<point x="20" y="707"/>
			<point x="72" y="680"/>
			<point x="138" y="680" type="curve" smooth="yes"/>
			<point x="204" y="680"/>
			<point x="260" y="706"/>
			<point x="260" y="761" type="curve" smooth="yes"/>
		</contour>
	</outline>
</glyph>
<glyph name="iogonek" format="2">
	<advance width="280"/>
	<unicode hex="012F"/>
	<outline>
		<contour>
			<point x="140" y="0" type="move"/>
			<point x="140" y="555" type="line"/>
		</contour>
		<contour>
			<point x="140" y="678" type="move"/>
			<point x="140" y="785" type="line"/>
		</contour>
		<contour>
			<point x="181" y="-184" type="move" smooth="yes"/>
			<point x="168" y="-192"/>
			<point x="143" y="-200"/>
			<point x="119" y="-200" type="curve" smooth="yes"/>
			<point x="69" y="-200"/>
			<point x="42" y="-175"/>
			<point x="42" y="-130" type="curve" smooth="yes"/>
			<point x="42" y="-87"/>
			<point x="93" y="-38"/>
			<point x="140" y="0" type="curve"/>
		</contour>
	</outline>
</glyph>
<glyph name="Idotaccent" format="2">
	<advance width="280"/>
	<unicode hex="0130"/>
	<outline>
		<contour>
			<point x="140" y="0" type="move"/>
			<point x="140" y="680" type="line"/>
		</contour>
		<contour>
			<point x="140" y="803" type="move"/>
			<point x="140" y="910" type="line"/>
		</contour>
	</outline>
</glyph>
<glyph name="Jcircumflex" format="2">
	<advance width="361"/>
	<unicode hex="0134"/>
	<outline>
		<contour>
			<point x="50" y="29" type="move" smooth="yes"/>
			<point x="73" y="7"/>
			<point x="103" y="0"/>
			<point x="128" y="0" type="curve" smooth="yes"/>
			<point x="185" y="0"/>
			<point x="231" y="35"/>
			<point x="231" y="138" type="curve" smooth="yes"/>
			<point x="231" y="680" type="line"/>
		</contour>
		<contour>
			<point x="342" y="773" type="move"/>
			<point x="233" y="899" type="line"/>
			<point x="229" y="899" type="line"/>
			<point x="120" y="773" type="line"/>
		</contour>
	</outline>
</glyph>
<glyph name="Lacute" format="2">
	<advance width="508"/>
	<unicode hex="0139"/>
	<outline>
		<contour>
			<point x="458" y="10" type="move"/>
			<point x="140" y="10" type="line"/>
			<point x="140" y="680" type="line"/>
		</contour>
		<contour>
			<point x="140" y="782" type="move"/>
			<point x="275" y="915" type="line"/>
		</contour>
	</outline>
</glyph>
<glyph name="uni013B" format="2">
	<advance width="508"/>
	<unicode hex="013B"/>
	<outline>
		<contour>
			<point x="458" y="10" type="move"/>
			<point x="140" y="10" type="line"/>
			<point x="140" y="680" type="line"/>
		</contour>
		<contour>
			<point x="205" y="-240" type="move"/>
			<point x="283" y="-85" type="line"/>
		</contour>
	</outline>
</glyph>
<glyph name="Lcaron" format="2">
	<advance width="508"/>
	<unicode hex="013D"/>
	<outline>
		<contour>
			<point x="458" y="10" type="move"/>
			<point x="140" y="10" type="line"/>
			<point x="140" y="680" type="line"/>
		</contour>
		<contour>
			<point x="276" y="567" type="move"/>
			<point x="333" y="650" type="line"/>
			<point x="333" y="734" type="line"/>
		</contour>
	</outline>
</glyph>
<glyph name="Ldot" format="2">
	<advance width="508"/>
	<unicode hex="013F"/>
	<outline>
		<contour>
			<point x="458" y="10" type="move"/>
			<point x="140" y="10" type="line"/>
			<point x="140" y="680" type="line"/>
		</contour>
		<contour>
			<point x="398" y="390" type="move"/>
			<point x="398" y="280" type="line"/>
		</contour>
	</outline>
</glyph>
<glyph name="Lslash" format="2">
	<advance width="523"/>
	<unicode hex="0141"/>
	<outline>
		<contour>
			<point x="50" y="297" type="move"/>
			<point x="352" y="397" type="line"/>
		</contour>
		<contour>
			<point x="473" y="10" type="move"/>
			<point x="155" y="10" type="line"/>
			<point x="155" y="680" type="line"/>
		</contour>
	</outline>
</glyph>
<glyph name="nacute" format="2">
	<advance width="608"/>
	<unicode hex="0144"/>
	<outline>
		<contour>
			<point x="140" y="555" type="move"/>
			<point x="140" y="0" type="line"/>
		</contour>
		<contour>
			<point x="473" y="0" type="move"/>
			<point x="473" y="415" type="line" smooth="yes"/>
			<point x="473" y="502"/>
			<point x="433" y="555"/>
			<point x="356" y="555" type="curve" smooth="yes"/>
			<point x="267" y="555"/>
			<point x="201" y="485"/>
			<point x="140" y="415" type="curve"/>
		</contour>
		<contour>
			<point x="246" y="657" type="move"/>
			<point x="381" y="790" type="line"/>
		</contour>
	</outline>
</glyph>
<glyph name="uni0145" format="2">
	<advance width="740"/>
	<unicode hex="0145"/>
	<outline>
		<contour>
			<point x="140" y="0" type="move"/>
			<point x="140" y="675" type="line"/>
			<point x="144" y="675" type="line"/>
			<point x="596" y="5" type="line"/>
			<point x="600" y="5" type="line"/>
			<point x="599" y="680" type="line"/>
		</contour>
		<contour>
			<point x="321" y="-240" type="move"/>
			<point x="399" y="-85" type="line"/>
		</contour>
	</outline>
</glyph>
<glyph name="ncaron" format="2">
	<advance width="608"/>
	<unicode hex="0148"/>
	<outline>
		<contour>
			<point x="140" y="555" type="move"/>
			<point x="140" y="0" type="line"/>
		</contour>
		<contour>
			<point x="473" y="0" type="move"/>
			<point x="473" y="415" type="line" smooth="yes"/>
			<point x="473" y="502"/>
			<point x="433" y="555"/>
			<point x="356" y="555" type="curve" smooth="yes"/>
			<point x="267" y="555"/>
			<point x="201" y="485"/>
			<point x="140" y="415" type="curve"/>
		</contour>
		<contour>
			<point x="203" y="776" type="move"/>
			<point x="312" y="650" type="line"/>
			<point x="316" y="650" type="line"/>
			<point x="425" y="776" type="line"/>
		</contour>
	</outline>
</glyph>
<glyph name="Eng" format="2">
	<advance width="740"/>
	<unicode hex="014A"/>
	<outline>
		<contour>
			<point x="442" y="-163" type="move"/>
			<point x="457" y="-177"/>
			<point x="481" y="-188"/>
			<point x="514" y="-188" type="curve" smooth="yes"/>
			<point x="577" y="-188"/>
			<point x="600" y="-150"/>
			<point x="600" y="-81" type="curve" smooth="yes"/>
			<point x="600" y="0" type="line"/>
		</contour>
		<contour>
			<point x="140" y="0" type="move"/>
			<point x="140" y="675" type="line"/>
			<point x="144" y="675" type="line"/>
			<point x="596" y="5" type="line"/>
			<point x="600" y="5" type="line"/>
			<point x="599" y="680" type="line"/>
		</contour>
	</outline>
</glyph>
<glyph name="Omacron" format="2">
	<advance width="716"/>
	<unicode hex="014C"/>
	<outline>
		<contour>
			<point x="357" y="680" type="move"/>
			<point x="168" y="680"/>
			<point x="95" y="501"/>
			<point x="95" y="341" type="curve" smooth="yes"/>
			<point x="95" y="207"/>
			<point x="147" y="0"/>
			<point x="358" y="0" type="curve" smooth="yes"/>
			<point x="569" y="0"/>
			<point x="621" y="207"/>
			<point x="621" y="341" type="curve" smooth="yes"/>
			<point x="621" y="501"/>
			<point x="548" y="680"/>
			<point x="359" y="680" type="curve"/>
		</contour>
		<contour>
			<point x="468" y="828" type="move"/>
			<point x="247" y="828" type="line"/>
		</contour>
	</outline>
</glyph>
<glyph name="omacron" format="2">
	<advance width="592"/>
	<unicode hex="014D"/>
	<outline>
		<contour>
			<point x="295" y="555" type="move"/>
			<point x="131" y="555"/>
			<point x="90" y="384"/>
			<point x="90" y="275" type="curve" smooth="yes"/>
			<point x="90" y="140"/>
			<point x="152" y="0"/>
			<point x="296" y="0" type="curve" smooth="yes"/>
			<point x="440" y="0"/>
			<point x="502" y="140"/>
			<point x="502" y="275" type="curve" smooth="yes"/>
			<point x="502" y="384"/>
			<point x="461" y="555"/>
			<point x="297" y="555" type="curve"/>
		</contour>
		<contour>
			<point x="405" y="703" type="move"/>
			<point x="184" y="703" type="line"/>
		</contour>
	</outline>
</glyph>
<glyph name="oe" format="2">
	<advance width="973"/>
	<unicode hex="0153"/>
	<guideline x="862" y="-64" angle="0"/>
	<guideline x="48" y="78" angle="0"/>
	<guideline x="48" y="68" angle="0"/>
	<guideline x="48" y="50" angle="0"/>
	<outline>
		<contour>
			<point x="295" y="555" type="move"/>
			<point x="131" y="555"/>
			<point x="90" y="384"/>
			<point x="90" y="275" type="curve" smooth="yes"/>
			<point x="90" y="140"/>
			<point x="152" y="0"/>
			<point x="296" y="0" type="curve" smooth="yes"/>
			<point x="440" y="0"/>
			<point x="502" y="140"/>
			<point x="502" y="275" type="curve" smooth="yes"/>
			<point x="502" y="384"/>
			<point x="461" y="555"/>
			<point x="297" y="555" type="curve"/>
		</contour>
		<contour>
			<point x="504" y="305" type="move"/>
			<point x="888" y="305" type="line"/>
			<point x="888" y="417"/>
			<point x="851" y="555"/>
			<point x="706" y="555" type="curve" smooth="yes"/>
			<point x="581" y="555"/>
			<point x="502" y="451"/>
			<point x="502" y="275" type="curve" smooth="yes"/>
			<point x="502" y="116"/>
			<point x="566" y="0"/>
			<point x="709" y="0" type="curve" smooth="yes"/>
			<point x="803" y="0"/>
			<point x="855" y="51"/>
			<point x="880" y="110" type="curve" smooth="yes"/>
		</contour>
	</outline>
</glyph>
<glyph name="racute" format="2">
	<advance width="394"/>
	<unicode hex="0155"/>
	<outline>
		<contour>
			<point x="140" y="555" type="move"/>
			<point x="140" y="0" type="line"/>
		</contour>
		<contour>
			<point x="140" y="415" type="move"/>
			<point x="211" y="497"/>
			<point x="277" y="555"/>
			<point x="338" y="555" type="curve" smooth="yes"/>
		</contour>
		<contour>
			<point x="166" y="657" type="move"/>
			<point x="301" y="790" type="line"/>
		</contour>
	</outline>
</glyph>
<glyph name="uni0156" format="2">
	<advance width="604"/>
	<unicode hex="0156"/>
	<outline>
		<contour>
			<point x="140" y="0" type="move"/>
			<point x="140" y="670" type="line"/>
		</contour>
		<contour>
			<point x="519" y="0" type="move"/>
			<point x="343" y="344" type="line"/>
		</contour>
		<contour>
			<point x="140" y="344" type="move"/>
			<point x="325" y="344" type="line" smooth="yes"/>
			<point x="423" y="344"/>
			<point x="506" y="404"/>
			<point x="506" y="507" type="curve" smooth="yes"/>
			<point x="506" y="594"/>
			<point x="447" y="670"/>
			<point x="313" y="670" type="curve" smooth="yes"/>
			<point x="140" y="670" type="line" smooth="yes"/>
		</contour>
		<contour>
			<point x="256" y="-240" type="move"/>
			<point x="334" y="-85" type="line"/>
		</contour>
	</outline>
</glyph>
<glyph name="rcaron" format="2">
	<advance width="394"/>
	<unicode hex="0159"/>
	<outline>
		<contour>
			<point x="140" y="555" type="move"/>
			<point x="140" y="0" type="line"/>
		</contour>
		<contour>
			<point x="140" y="415" type="move"/>
			<point x="211" y="497"/>
			<point x="277" y="555"/>
			<point x="338" y="555" type="curve" smooth="yes"/>
		</contour>
		<contour>
			<point x="123" y="776" type="move"/>
			<point x="232" y="650" type="line"/>
			<point x="236" y="650" type="line"/>
			<point x="345" y="776" type="line"/>
		</contour>
	</outline>
</glyph>
<glyph name="scedilla" format="2">
	<advance width="521"/>
	<unicode hex="015F"/>
	<outline>
		<contour>
			<point x="90" y="118" type="move" smooth="yes"/>
			<point x="114" y="44"/>
			<point x="185" y="0"/>
			<point x="270" y="0" type="curve" smooth="yes"/>
			<point x="351" y="0"/>
			<point x="436" y="41"/>
			<point x="436" y="135" type="curve" smooth="yes"/>
			<point x="436" y="320"/>
			<point x="109" y="256"/>
			<point x="109" y="430" type="curve" smooth="yes"/>
			<point x="109" y="518"/>
			<point x="193" y="555"/>
			<point x="265" y="555" type="curve" smooth="yes"/>
			<point x="335" y="555"/>
			<point x="390" y="520"/>
			<point x="415" y="462" type="curve"/>
		</contour>
		<contour>
			<point x="185" y="-177" type="move" smooth="yes"/>
			<point x="198" y="-184"/>
			<point x="217" y="-191"/>
			<point x="246" y="-191" type="curve" smooth="yes"/>
			<point x="298" y="-191"/>
			<point x="330" y="-168"/>
			<point x="330" y="-132" type="curve" smooth="yes"/>
			<point x="330" y="-95"/>
			<point x="299" y="-78"/>
			<point x="245" y="-78" type="curve" smooth="yes"/>
			<point x="219" y="-78" type="line"/>
			<point x="265" y="0" type="line"/>
		</contour>
	</outline>
</glyph>
<glyph name="uni0162" format="2">
	<advance width="520"/>
	<unicode hex="0162"/>
	<outline>
		<contour>
			<point x="260" y="0" type="move"/>
			<point x="260" y="670" type="line"/>
		</contour>
		<contour>
			<point x="40" y="670" type="move"/>
			<point x="480" y="670" type="line"/>
		</contour>
		<contour>
			<point x="180" y="-177" type="move" smooth="yes"/>
			<point x="193" y="-184"/>
			<point x="212" y="-191"/>
			<point x="241" y="-191" type="curve" smooth="yes"/>
			<point x="293" y="-191"/>
			<point x="325" y="-168"/>
			<point x="325" y="-132" type="curve" smooth="yes"/>
			<point x="325" y="-95"/>
			<point x="294" y="-78"/>
			<point x="240" y="-78" type="curve" smooth="yes"/>
			<point x="214" y="-78" type="line"/>
			<point x="260" y="0" type="line"/>
		</contour>
	</outline>
</glyph>
<glyph name="uni0163" format="2">
	<advance width="387"/>
	<unicode hex="0163"/>
	<outline>
		<contour>
			<point x="327" y="27" type="move" smooth="yes"/>
			<point x="309" y="11"/>
			<point x="281" y="0"/>
			<point x="247" y="0" type="curve" smooth="yes"/>
			<point x="185" y="0"/>
			<point x="150" y="35"/>
			<point x="150" y="117" type="curve" smooth="yes"/>
			<point x="150" y="660" type="line"/>
		</contour>
		<contour>
			<point x="50" y="501" type="move"/>
			<point x="313" y="501" type="line"/>
		</contour>
		<contour>
			<point x="164" y="-177" type="move" smooth="yes"/>
			<point x="177" y="-184"/>
			<point x="196" y="-191"/>
			<point x="225" y="-191" type="curve" smooth="yes"/>
			<point x="277" y="-191"/>
			<point x="309" y="-168"/>
			<point x="309" y="-132" type="curve" smooth="yes"/>
			<point x="309" y="-95"/>
			<point x="278" y="-78"/>
			<point x="224" y="-78" type="curve" smooth="yes"/>
			<point x="198" y="-78" type="line"/>
			<point x="244" y="0" type="line"/>
		</contour>
	</outline>
</glyph>
<glyph name="Tcaron" format="2">
	<advance width="520"/>
	<unicode hex="0164"/>
	<outline>
		<contour>
			<point x="260" y="0" type="move"/>
			<point x="260" y="670" type="line"/>
		</contour>
		<contour>
			<point x="40" y="670" type="move"/>
			<point x="480" y="670" type="line"/>
		</contour>
		<contour>
			<point x="149" y="901" type="move"/>
			<point x="258" y="775" type="line"/>
			<point x="262" y="775" type="line"/>
			<point x="371" y="901" type="line"/>
		</contour>
	</outline>
</glyph>
<glyph name="Utilde" format="2">
	<advance width="694"/>
	<unicode hex="0168"/>
	<outline>
		<contour>
			<point x="130" y="680" type="move"/>
			<point x="130" y="245" type="line" smooth="yes"/>
			<point x="130" y="87"/>
			<point x="218" y="0"/>
			<point x="347" y="0" type="curve" smooth="yes"/>
			<point x="482" y="0"/>
			<point x="564" y="87"/>
			<point x="564" y="245" type="curve" smooth="yes"/>
			<point x="564" y="680" type="line"/>
		</contour>
		<contour>
			<point x="207" y="812" type="move"/>
			<point x="229" y="849"/>
			<point x="256" y="860"/>
			<point x="281" y="860" type="curve" smooth="yes"/>
			<point x="328" y="860"/>
			<point x="358" y="812"/>
			<point x="411" y="812" type="curve" smooth="yes"/>
			<point x="436" y="812"/>
			<point x="462" y="821"/>
			<point x="485" y="859" type="curve"/>
		</contour>
	</outline>
</glyph>
<glyph name="Uring" format="2">
	<advance width="694"/>
	<unicode hex="016E"/>
	<outline>
		<contour>
			<point x="130" y="680" type="move"/>
			<point x="130" y="245" type="line" smooth="yes"/>
			<point x="130" y="87"/>
			<point x="218" y="0"/>
			<point x="347" y="0" type="curve" smooth="yes"/>
			<point x="482" y="0"/>
			<point x="564" y="87"/>
			<point x="564" y="245" type="curve" smooth="yes"/>
			<point x="564" y="680" type="line"/>
		</contour>
		<contour>
			<point x="345" y="916" type="move"/>
			<point x="304" y="916"/>
			<point x="272" y="883"/>
			<point x="272" y="843" type="curve" smooth="yes"/>
			<point x="272" y="803"/>
			<point x="305" y="770"/>
			<point x="345" y="770" type="curve" smooth="yes"/>
			<point x="386" y="770"/>
			<point x="419" y="803"/>
			<point x="419" y="843" type="curve" smooth="yes"/>
			<point x="419" y="883"/>
			<point x="386" y="916"/>
			<point x="345" y="916" type="curve"/>
		</contour>
	</outline>
</glyph>
<glyph name="uring" format="2">
	<advance width="603"/>
	<unicode hex="016F"/>
	<outline>
		<contour>
			<point x="463" y="140" type="move"/>
			<point x="423" y="72"/>
			<point x="351" y="0"/>
			<point x="262" y="0" type="curve" smooth="yes"/>
			<point x="185" y="0"/>
			<point x="135" y="53"/>
			<point x="135" y="150" type="curve" smooth="yes"/>
			<point x="135" y="555" type="line"/>
		</contour>
		<contour>
			<point x="463" y="555" type="move"/>
			<point x="463" y="0" type="line"/>
		</contour>
		<contour>
			<point x="301" y="791" type="move"/>
			<point x="260" y="791"/>
			<point x="228" y="758"/>
			<point x="228" y="718" type="curve" smooth="yes"/>
			<point x="228" y="678"/>
			<point x="261" y="645"/>
			<point x="301" y="645" type="curve" smooth="yes"/>
			<point x="342" y="645"/>
			<point x="375" y="678"/>
			<point x="375" y="718" type="curve" smooth="yes"/>
			<point x="375" y="758"/>
			<point x="342" y="791"/>
			<point x="301" y="791" type="curve"/>
		</contour>
	</outline>
</glyph>
<glyph name="Uhungarumlaut" format="2">
	<advance width="694"/>
	<unicode hex="0170"/>
	<outline>
		<contour>
			<point x="130" y="680" type="move"/>
			<point x="130" y="245" type="line" smooth="yes"/>
			<point x="130" y="87"/>
			<point x="218" y="0"/>
			<point x="347" y="0" type="curve" smooth="yes"/>
			<point x="482" y="0"/>
			<point x="564" y="87"/>
			<point x="564" y="245" type="curve" smooth="yes"/>
			<point x="564" y="680" type="line"/>
		</contour>
		<contour>
			<point x="219" y="782" type="move"/>
			<point x="346" y="907" type="line"/>
		</contour>
		<contour>
			<point x="366" y="782" type="move"/>
			<point x="493" y="907" type="line"/>
		</contour>
	</outline>
</glyph>
<glyph name="Uogonek" format="2">
	<advance width="694"/>
	<unicode hex="0172"/>
	<outline>
		<contour>
			<point x="130" y="680" type="move"/>
			<point x="130" y="245" type="line" smooth="yes"/>
			<point x="130" y="87"/>
			<point x="218" y="0"/>
			<point x="347" y="0" type="curve" smooth="yes"/>
			<point x="482" y="0"/>
			<point x="564" y="87"/>
			<point x="564" y="245" type="curve" smooth="yes"/>
			<point x="564" y="680" type="line"/>
		</contour>
		<contour>
			<point x="403" y="-184" type="move" smooth="yes"/>
			<point x="390" y="-192"/>
			<point x="365" y="-200"/>
			<point x="341" y="-200" type="curve" smooth="yes"/>
			<point x="291" y="-200"/>
			<point x="264" y="-175"/>
			<point x="264" y="-130" type="curve" smooth="yes"/>
			<point x="264" y="-87"/>
			<point x="315" y="-38"/>
			<point x="362" y="0" type="curve"/>
		</contour>
	</outline>
</glyph>
<glyph name="wcircumflex" format="2">
	<advance width="817"/>
	<unicode hex="0175"/>
	<outline>
		<contour>
			<point x="70" y="555" type="move"/>
			<point x="237" y="0" type="line"/>
			<point x="241" y="0" type="line"/>
			<point x="408" y="545" type="line"/>
			<point x="412" y="545" type="line"/>
			<point x="584" y="0" type="line"/>
			<point x="588" y="0" type="line"/>
			<point x="747" y="555" type="line"/>
		</contour>
		<contour>
			<point x="520" y="648" type="move"/>
			<point x="411" y="774" type="line"/>
			<point x="407" y="774" type="line"/>
			<point x="298" y="648" type="line"/>
		</contour>
	</outline>
</glyph>
<glyph name="ycircumflex" format="2">
	<advance width="538"/>
	<unicode hex="0177"/>
	<outline>
		<contour>
			<point x="276" y="-16" type="move"/>
			<point x="70" y="555" type="line"/>
		</contour>
		<contour>
			<point x="103" y="-175" type="move"/>
			<point x="119" y="-185"/>
			<point x="138" y="-190"/>
			<point x="156" y="-190" type="curve" smooth="yes"/>
			<point x="213" y="-190"/>
			<point x="242" y="-138"/>
			<point x="276" y="-16" type="curve"/>
			<point x="478" y="555" type="line"/>
		</contour>
		<contour>
			<point x="380" y="648" type="move"/>
			<point x="271" y="774" type="line"/>
			<point x="267" y="774" type="line"/>
			<point x="158" y="648" type="line"/>
		</contour>
	</outline>
</glyph>
<glyph name="Ydieresis" format="2">
	<advance width="575"/>
	<unicode hex="0178"/>
	<outline>
		<contour>
			<point x="285" y="0" type="move"/>
			<point x="285" y="296" type="line"/>
		</contour>
		<contour>
			<point x="50" y="680" type="move"/>
			<point x="285" y="296" type="line"/>
			<point x="525" y="680" type="line"/>
		</contour>
		<contour>
			<point x="220" y="785" type="move"/>
			<point x="220" y="910" type="line"/>
		</contour>
		<contour>
			<point x="362" y="785" type="move"/>
			<point x="362" y="910" type="line"/>
		</contour>
	</outline>
</glyph>
<glyph name="zacute" format="2">
	<advance width="530"/>
	<unicode hex="017A"/>
	<outline>
		<contour>
			<point x="450" y="10" type="move"/>
			<point x="90" y="10" type="line"/>
			<point x="90" y="14" type="line"/>
			<point x="435" y="541" type="line"/>
			<point x="435" y="545" type="line"/>
			<point x="93" y="545" type="line"/>
		</contour>
		<contour>
			<point x="191" y="657" type="move"/>
			<point x="326" y="790" type="line"/>
		</contour>
	</outline>
</glyph>
<glyph name="Zcaron" format="2">
	<advance width="609"/>
	<unicode hex="017D"/>
	<outline>
		<contour>
			<point x="509" y="10" type="move"/>
			<point x="111" y="10" type="line"/>
			<point x="111" y="14" type="line"/>
			<point x="498" y="666" type="line"/>
			<point x="498" y="670" type="line"/>
			<point x="110" y="670" type="line"/>
		</contour>
		<contour>
			<point x="189" y="901" type="move"/>
			<point x="298" y="775" type="line"/>
			<point x="302" y="775" type="line"/>
			<point x="411" y="901" type="line"/>
		</contour>
	</outline>
</glyph>
<glyph name="uni021A" format="2">
	<advance width="520"/>
	<unicode hex="021A"/>
	<outline>
		<contour>
			<point x="181" y="-222" type="move"/>
			<point x="259" y="-67" type="line"/>
		</contour>
		<contour>
			<point x="260" y="0" type="move"/>
			<point x="260" y="670" type="line"/>
		</contour>
		<contour>
			<point x="40" y="670" type="move"/>
			<point x="480" y="670" type="line"/>
		</contour>
	</outline>
</glyph>
<glyph name="uni0307" format="2">
	<advance width="80"/>
	<unicode hex="0307"/>
	<outline>
		<contour>
			<point x="40" y="678" type="move"/>
			<point x="40" y="785" type="line"/>
		</contour>
	</outline>
</glyph>
<glyph name="uni030B" format="2">
	<advance width="294"/>
	<unicode hex="030B"/>
	<outline>
		<contour>
			<point x="10" y="657" type="move"/>
			<point x="137" y="782" type="line"/>
		</contour>
		<contour>
			<point x="157" y="657" type="move"/>
			<point x="284" y="782" type="line"/>
		</contour>
	</outline>
</glyph>
<glyph name="uni030C" format="2">
	<advance width="242"/>
	<unicode hex="030C"/>
	<outline>
		<contour>
			<point x="10" y="776" type="move"/>
			<point x="119" y="650" type="line"/>
			<point x="123" y="650" type="line"/>
			<point x="232" y="776" type="line"/>
		</contour>
	</outline>
</glyph>
<glyph name="uni0312" format="2">
	<advance width="98"/>
	<unicode hex="0312"/>
	<outline>
		<contour>
			<point x="88" y="802" type="move"/>
			<point x="10" y="647" type="line"/>
		</contour>
	</outline>
</glyph>
<glyph name="uni0326" format="2">
	<advance width="98"/>
	<unicode hex="0326"/>
	<outline>
		<contour>
			<point x="10" y="-240" type="move"/>
			<point x="88" y="-85" type="line"/>
		</contour>
	</outline>
</glyph>
<glyph name="Wacute" format="2">
	<advance width="910"/>
	<unicode hex="1E82"/>
	<outline>
		<contour>
			<point x="80" y="680" type="move"/>
			<point x="255" y="5" type="line"/>
			<point x="259" y="5" type="line"/>
			<point x="450" y="670" type="line"/>
			<point x="454" y="670" type="line"/>
			<point x="645" y="5" type="line"/>
			<point x="649" y="5" type="line"/>
			<point x="830" y="680" type="line"/>
		</contour>
		<contour>
			<point x="385" y="782" type="move"/>
			<point x="520" y="915" type="line"/>
		</contour>
	</outline>
</glyph>
<glyph name="Wdieresis" format="2">
	<advance width="910"/>
	<unicode hex="1E84"/>
	<outline>
		<contour>
			<point x="80" y="680" type="move"/>
			<point x="255" y="5" type="line"/>
			<point x="259" y="5" type="line"/>
			<point x="450" y="670" type="line"/>
			<point x="454" y="670" type="line"/>
			<point x="645" y="5" type="line"/>
			<point x="649" y="5" type="line"/>
			<point x="830" y="680" type="line"/>
		</contour>
		<contour>
			<point x="382" y="785" type="move"/>
			<point x="382" y="910" type="line"/>
		</contour>
		<contour>
			<point x="524" y="785" type="move"/>
			<point x="524" y="910" type="line"/>
		</contour>
	</outline>
</glyph>
<glyph name="wdieresis" format="2">
	<advance width="817"/>
	<unicode hex="1E85"/>
	<outline>
		<contour>
			<point x="70" y="555" type="move"/>
			<point x="237" y="0" type="line"/>
			<point x="241" y="0" type="line"/>
			<point x="408" y="545" type="line"/>
			<point x="412" y="545" type="line"/>
			<point x="584" y="0" type="line"/>
			<point x="588" y="0" type="line"/>
			<point x="747" y="555" type="line"/>
		</contour>
		<contour>
			<point x="338" y="660" type="move"/>
			<point x="338" y="785" type="line"/>
		</contour>
		<contour>
			<point x="480" y="660" type="move"/>
			<point x="480" y="785" type="line"/>
		</contour>
	</outline>
</glyph>
<glyph name="Ygrave" format="2">
	<advance width="575"/>
	<unicode hex="1EF2"/>
	<outline>
		<contour>
			<point x="285" y="0" type="move"/>
			<point x="285" y="296" type="line"/>
		</contour>
		<contour>
			<point x="50" y="680" type="move"/>
			<point x="285" y="296" type="line"/>
			<point x="525" y="680" type="line"/>
		</contour>
		<contour>
			<point x="223" y="916" type="move"/>
			<point x="358" y="783" type="line"/>
		</contour>
	</outline>
</glyph>
<glyph name="quoteright" format="2">
	<advance width="218"/>
	<unicode hex="2019"/>
	<outline>
		<contour>
			<point x="80" y="536" type="move"/>
			<point x="158" y="691" type="line"/>
			<point x="158" y="745" type="line"/>
			<point x="104" y="745" type="line"/>
		</contour>
	</outline>
</glyph>
<glyph name="quotedblleft" format="2">
	<advance width="393"/>
	<unicode hex="201C"/>
	<outline>
		<contour>
			<point x="313" y="764" type="move"/>
			<point x="235" y="609" type="line"/>
			<point x="235" y="555" type="line"/>
			<point x="289" y="555" type="line"/>
		</contour>
		<contour>
			<point x="138" y="764" type="move"/>
			<point x="60" y="609" type="line"/>
			<point x="60" y="555" type="line"/>
			<point x="114" y="555" type="line"/>
		</contour>
	</outline>
</glyph>
<glyph name="second" format="2">
	<advance width="291"/>
	<unicode hex="2033"/>
	<outline>
		<contour>
			<point x="71" y="540" type="move"/>
			<point x="71" y="745" type="line"/>
			<point x="70" y="745" type="line"/>
		</contour>
		<contour>
			<point x="221" y="540" type="move"/>
			<point x="221" y="745" type="line"/>
			<point x="220" y="745" type="line"/>
		</contour>
	</outline>
</glyph>
<glyph name="uni2075" format="2">
	<advance width="279"/>
	<unicode hex="2075"/>
	<outline>
		<contour>
			<point x="47.5" y="474" type="move" smooth="yes"/>
			<point x="63.5" y="429.5"/>
			<point x="96.5" y="405"/>
			<point x="138" y="405" type="curve" smooth="yes"/>
			<point x="192.5" y="405"/>
			<point x="233.5" y="447"/>
			<point x="233.5" y="509" type="curve" smooth="yes"/>
			<point x="233.5" y="567.5"/>
			<point x="196.5" y="612.5"/>
			<point x="137" y="612.5" type="curve" smooth="yes"/>
			<point x="114" y="612.5"/>
			<point x="84.5" y="606"/>
			<point x="63.5" y="593" type="curve"/>
			<point x="68.5" y="740" type="line"/>
			<point x="224.5" y="740" type="line"/>
		</contour>
	</outline>
</glyph>
<glyph name="uni2079" format="2">
	<advance width="276"/>
	<unicode hex="2079"/>
	<outline>
		<contour>
			<point x="95.5" y="405" type="move"/>
			<point x="175" y="511" type="line" smooth="yes"/>
			<point x="216" y="565.5"/>
			<point x="230.5" y="603"/>
			<point x="230.5" y="642.5" type="curve" smooth="yes"/>
			<point x="230.5" y="692.5"/>
			<point x="203.5" y="745"/>
			<point x="129.5" y="745" type="curve" smooth="yes"/>
			<point x="65.5" y="745"/>
			<point x="29.5" y="703"/>
			<point x="29.5" y="646" type="curve" smooth="yes"/>
			<point x="29.5" y="583"/>
			<point x="75" y="544.5"/>
			<point x="126.5" y="544.5" type="curve" smooth="yes"/>
			<point x="161" y="544.5"/>
			<point x="200" y="561"/>
			<point x="223" y="596.5" type="curve" smooth="yes"/>
		</contour>
	</outline>
</glyph>
<glyph name="uni2153" format="2">
	<advance width="639"/>
	<unicode hex="2153"/>
	<outline>
		<contour>
			<point x="393.5" y="61.5" type="move"/>
			<point x="403" y="24.5"/>
			<point x="439" y="-0.5"/>
			<point x="487.5" y="-0.5" type="curve" smooth="yes"/>
			<point x="546.5" y="-0.5"/>
			<point x="584" y="36.5"/>
			<point x="584" y="87.5" type="curve" smooth="yes"/>
			<point x="584" y="132"/>
			<point x="556" y="179.5"/>
			<point x="480.5" y="179.5" type="curve"/>
			<point x="465" y="179.5" type="line"/>
		</contour>
		<contour>
			<point x="480.5" y="179.5" type="move"/>
			<point x="547.5" y="179.5"/>
			<point x="579" y="218"/>
			<point x="579" y="263" type="curve" smooth="yes"/>
			<point x="579" y="304"/>
			<point x="552" y="340"/>
			<point x="492.5" y="340" type="curve" smooth="yes"/>
			<point x="444.5" y="340"/>
			<point x="415.5" y="316"/>
			<point x="401" y="289.5" type="curve"/>
		</contour>
		<contour>
			<point x="114" y="0" type="move"/>
			<point x="471" y="680" type="line"/>
		</contour>
		<contour>
			<point x="144" y="340" type="move"/>
			<point x="144" y="675" type="line"/>
			<point x="142" y="675" type="line"/>
			<point x="35" y="599.5" type="line"/>
		</contour>
	</outline>
</glyph>
<glyph name="uni2154" format="2">
	<advance width="660"/>
	<unicode hex="2154"/>
	<outline>
		<contour>
			<point x="232.5" y="340" type="move"/>
			<point x="32.5" y="340" type="line"/>
			<point x="32.5" y="342" type="line"/>
			<point x="144" y="464.5" type="line" smooth="yes"/>
			<point x="182" y="506.5"/>
			<point x="220" y="546"/>
			<point x="220" y="599.5" type="curve" smooth="yes"/>
			<point x="220" y="654"/>
			<point x="180.5" y="680"/>
			<point x="137" y="680" type="curve" smooth="yes"/>
			<point x="93" y="680"/>
			<point x="56.5" y="654"/>
			<point x="42" y="611" type="curve"/>
		</contour>
		<contour>
			<point x="434.5" y="61.5" type="move"/>
			<point x="444" y="24.5"/>
			<point x="480" y="-0.5"/>
			<point x="528.5" y="-0.5" type="curve" smooth="yes"/>
			<point x="587.5" y="-0.5"/>
			<point x="625" y="36.5"/>
			<point x="625" y="87.5" type="curve" smooth="yes"/>
			<point x="625" y="132"/>
			<point x="597" y="179.5"/>
			<point x="521.5" y="179.5" type="curve"/>
			<point x="506" y="179.5" type="line"/>
		</contour>
		<contour>
			<point x="521.5" y="179.5" type="move"/>
			<point x="588.5" y="179.5"/>
			<point x="620" y="218"/>
			<point x="620" y="263" type="curve" smooth="yes"/>
			<point x="620" y="304"/>
			<point x="593" y="340"/>
			<point x="533.5" y="340" type="curve" smooth="yes"/>
			<point x="485.5" y="340"/>
			<point x="456.5" y="316"/>
			<point x="442" y="289.5" type="curve"/>
		</contour>
		<contour>
			<point x="155" y="0" type="move"/>
			<point x="512" y="680" type="line"/>
		</contour>
	</outline>
</glyph>
<glyph name="arrowup" format="2">
	<advance width="772"/>
	<unicode hex="2191"/>
	<guideline x="2" y="605" angle="0"/>
	<outline>
		<contour>
			<point x="386" y="686" type="move"/>
			<point x="386" y="-11" type="line"/>
		</contour>
		<contour>
			<point x="692" y="404" type="move"/>
			<point x="386" y="688" type="line"/>
			<point x="80" y="404" type="line"/>
		</contour>
	</outline>
</glyph>
<glyph name="arrowdown" format="2">
	<advance width="772"/>
	<unicode hex="2193"/>
	<guideline x="34" y="605" angle="0"/>
	<guideline x="34" y="-94" angle="0"/>
	<outline>
		<contour>
			<point x="386" y="-47" type="move"/>
			<point x="386" y="650" type="line"/>
		</contour>
		<contour>
			<point x="80" y="235" type="move"/>
			<point x="386" y="-49" type="line"/>
			<point x="692" y="235" type="line"/>
		</contour>
	</outline>
</glyph>
<glyph name="uni2198" format="2">
	<advance width="746"/>
	<unicode hex="2198"/>
	<outline>
		<contour>
			<point x="110" y="568" type="move"/>
			<point x="583" y="56" type="line"/>
		</contour>
		<contour>
			<point x="167" y="56" type="move"/>
			<point x="584" y="55" type="line"/>
			<point x="616" y="471" type="line"/>
		</contour>
	</outline>
</glyph>
<glyph name="uni2199" format="2">
	<advance width="746"/>
	<unicode hex="2199"/>
	<outline>
		<contour>
			<point x="163" y="56" type="move"/>
			<point x="636" y="568" type="line"/>
		</contour>
		<contour>
			<point x="130" y="471" type="move"/>
			<point x="162" y="55" type="line"/>
			<point x="579" y="56" type="line"/>
		</contour>
	</outline>
</glyph>
<glyph name="approxequal" format="2">
	<advance width="610"/>
	<unicode hex="2248"/>
	<outline>
		<contour>
			<point x="100.04" y="344" type="move"/>
			<point x="133.1744" y="400"/>
			<point x="172.7516" y="416"/>
			<point x="209.5676" y="416" type="curve" smooth="yes"/>
			<point x="278.5976" y="416"/>
			<point x="322.7768" y="344"/>
			<point x="401.0108" y="344" type="curve" smooth="yes"/>
			<point x="437.8268" y="344"/>
			<point x="476.4836" y="358"/>
			<point x="509.618" y="414" type="curve" smooth="yes"/>
		</contour>
		<contour>
			<point x="100.04" y="169" type="move"/>
			<point x="133.1744" y="225"/>
			<point x="172.7516" y="241"/>
			<point x="209.5676" y="241" type="curve" smooth="yes"/>
			<point x="278.5976" y="241"/>
			<point x="322.7768" y="169"/>
			<point x="401.0108" y="169" type="curve" smooth="yes"/>
			<point x="437.8268" y="169"/>
			<point x="476.4836" y="183"/>
			<point x="509.618" y="239" type="curve" smooth="yes"/>
		</contour>
	</outline>
</glyph>
<glyph name="lessequal" format="2">
	<advance width="618"/>
	<unicode hex="2264"/>
	<outline>
		<contour>
			<point x="111" y="0" type="move"/>
			<point x="507" y="0" type="line"/>
		</contour>
		<contour>
			<point x="508" y="520" type="move"/>
			<point x="110" y="332" type="line"/>
			<point x="110" y="329" type="line"/>
			<point x="508" y="142" type="line"/>
		</contour>
	</outline>
</glyph>
<glyph name="greaterequal" format="2">
	<advance width="618"/>
	<unicode hex="2265"/>
	<outline>
		<contour>
			<point x="111" y="0" type="move"/>
			<point x="507" y="0" type="line"/>
		</contour>
		<contour>
			<point x="110" y="142" type="move"/>
			<point x="507.76" y="329.2" type="line"/>
			<point x="507.76" y="332.4" type="line"/>
			<point x="110" y="519.6" type="line"/>
		</contour>
	</outline>
</glyph>
<glyph name="uni27F2" format="2">
	<advance width="860"/>
	<unicode hex="27F2"/>
	<outline>
		<contour>
			<point x="119" y="182" type="move"/>
			<point x="175" y="74"/>
			<point x="289" y="0"/>
			<point x="420" y="0" type="curve" smooth="yes"/>
			<point x="608" y="0"/>
			<point x="760" y="152"/>
			<point x="760" y="340" type="curve" smooth="yes"/>
			<point x="760" y="528"/>
			<point x="608" y="680"/>
			<point x="420" y="680" type="curve" smooth="yes"/>
			<point x="289" y="680"/>
			<point x="176" y="607"/>
			<point x="119" y="499" type="curve"/>
		</contour>
		<contour>
			<point x="110" y="745" type="move"/>
			<point x="119" y="499" type="line"/>
			<point x="365" y="490" type="line"/>
		</contour>
	</outline>
</glyph>
<glyph name="fi" format="2">
	<advance width="613"/>
	<unicode hex="FB01"/>
	<guideline x="48" y="697" angle="0"/>
	<guideline x="48" y="1971" angle="0"/>
	<outline>
		<contour>
			<point x="150" y="0" type="move"/>
			<point x="150" y="619" type="line" smooth="yes"/>
			<point x="150" y="696"/>
			<point x="187" y="745"/>
			<point x="258" y="745" type="curve" smooth="yes"/>
			<point x="285" y="745"/>
			<point x="309" y="738"/>
			<point x="328" y="724" type="curve"/>
		</contour>
		<contour>
			<point x="50" y="500" type="move"/>
			<point x="297" y="500" type="line"/>
		</contour>
		<contour>
			<point x="473" y="0" type="move"/>
			<point x="473" y="555" type="line"/>
		</contour>
		<contour>
			<point x="473" y="678" type="move"/>
			<point x="473" y="785" type="line"/>
		</contour>
	</outline>
</glyph>
<glyph name="colon.ss04" format="2">
	<advance width="301"/>
	<outline>
		<contour>
			<point x="150" y="72" type="move"/>
			<point x="127" y="72"/>
			<point x="110" y="54"/>
			<point x="110" y="31" type="curve" smooth="yes"/>
			<point x="110" y="8"/>
			<point x="128" y="-10"/>
			<point x="151" y="-10" type="curve" smooth="yes"/>
			<point x="174" y="-10"/>
			<point x="191" y="8"/>
			<point x="191" y="31" type="curve" smooth="yes"/>
			<point x="191" y="54"/>
			<point x="174" y="72"/>
			<point x="152" y="72" type="curve"/>
		</contour>
		<contour>
			<point x="150" y="535" type="move"/>
			<point x="127" y="535"/>
			<point x="110" y="517"/>
			<point x="110" y="494" type="curve" smooth="yes"/>
			<point x="110" y="471"/>
			<point x="128" y="453"/>
			<point x="151" y="453" type="curve" smooth="yes"/>
			<point x="174" y="453"/>
			<point x="191" y="471"/>
			<point x="191" y="494" type="curve" smooth="yes"/>
			<point x="191" y="517"/>
			<point x="174" y="535"/>
			<point x="152" y="535" type="curve"/>
		</contour>
	</outline>
</glyph>
<glyph name="colon.ss05" format="2">
	<advance width="274"/>
	<outline>
		<contour>
			<point x="164" y="0" type="move"/>
			<point x="164" y="67" type="line"/>
			<point x="110" y="67" type="line"/>
		</contour>
		<contour>
			<point x="164" y="463" type="move"/>
			<point x="164" y="530" type="line"/>
			<point x="110" y="530" type="line"/>
		</contour>
	</outline>
</glyph>
<glyph name="eight.dnom" format="2">
	<advance width="280"/>
	<outline>
		<contour>
			<point x="139" y="340" type="move"/>
			<point x="188.5" y="340"/>
			<point x="223" y="309"/>
			<point x="223" y="268.5" type="curve" smooth="yes"/>
			<point x="223" y="176.5"/>
			<point x="45" y="185"/>
			<point x="45" y="81" type="curve" smooth="yes"/>
			<point x="45" y="28.5"/>
			<point x="90.5" y="0"/>
			<point x="139" y="0" type="curve" smooth="yes"/>
			<point x="187" y="0"/>
			<point x="234.5" y="28"/>
			<point x="234.5" y="81" type="curve" smooth="yes"/>
			<point x="234.5" y="184"/>
			<point x="56" y="175"/>
			<point x="56" y="268.5" type="curve" smooth="yes"/>
			<point x="56" y="305"/>
			<point x="83" y="340"/>
			<point x="138" y="340" type="curve"/>
		</contour>
	</outline>
</glyph>
<glyph name="eight.numr" format="2">
	<advance width="280"/>
	<outline>
		<contour>
			<point x="139" y="680" type="move"/>
			<point x="188.5" y="680"/>
			<point x="223" y="649"/>
			<point x="223" y="608.5" type="curve" smooth="yes"/>
			<point x="223" y="516.5"/>
			<point x="45" y="525"/>
			<point x="45" y="421" type="curve" smooth="yes"/>
			<point x="45" y="368.5"/>
			<point x="90.5" y="340"/>
			<point x="139" y="340" type="curve" smooth="yes"/>
			<point x="187" y="340"/>
			<point x="234.5" y="368"/>
			<point x="234.5" y="421" type="curve" smooth="yes"/>
			<point x="234.5" y="524"/>
			<point x="56" y="515"/>
			<point x="56" y="608.5" type="curve" smooth="yes"/>
			<point x="56" y="645"/>
			<point x="83" y="680"/>
			<point x="138" y="680" type="curve"/>
		</contour>
	</outline>
</glyph>
<glyph name="equal.dnom" format="2">
	<advance width="317"/>
	<outline>
		<contour>
			<point x="247" y="111" type="move"/>
			<point x="70" y="111" type="line"/>
		</contour>
		<contour>
			<point x="247" y="211" type="move"/>
			<point x="70" y="211" type="line"/>
		</contour>
	</outline>
</glyph>
<glyph name="equal.numr" format="2">
	<advance width="317"/>
	<outline>
		<contour>
			<point x="247" y="451" type="move"/>
			<point x="70" y="451" type="line"/>
		</contour>
		<contour>
			<point x="247" y="551" type="move"/>
			<point x="70" y="551" type="line"/>
		</contour>
	</outline>
</glyph>
<glyph name="equal.subs" format="2">
	<advance width="317"/>
	<outline>
		<contour>
			<point x="247" y="46" type="move"/>
			<point x="70" y="46" type="line"/>
		</contour>
		<contour>
			<point x="247" y="146" type="move"/>
			<point x="70" y="146" type="line"/>
		</contour>
	</outline>
</glyph>
<glyph name="equal.sups" format="2">
	<advance width="317"/>
	<outline>
		<contour>
			<point x="247" y="516" type="move"/>
			<point x="70" y="516" type="line"/>
		</contour>
		<contour>
			<point x="247" y="616" type="move"/>
			<point x="70" y="616" type="line"/>
		</contour>
	</outline>
</glyph>
<glyph name="exclam.ss04" format="2">
	<advance width="341"/>
	<outline>
		<contour>
			<point x="172" y="180" type="move"/>
			<point x="172" y="680" type="line"/>
		</contour>
		<contour>
			<point x="170" y="72" type="move"/>
			<point x="147" y="72"/>
			<point x="130" y="54"/>
			<point x="130" y="31" type="curve" smooth="yes"/>
			<point x="130" y="8"/>
			<point x="148" y="-10"/>
			<point x="171" y="-10" type="curve" smooth="yes"/>
			<point x="194" y="-10"/>
			<point x="211" y="8"/>
			<point x="211" y="31" type="curve" smooth="yes"/>
			<point x="211" y="54"/>
			<point x="194" y="72"/>
			<point x="172" y="72" type="curve"/>
		</contour>
	</outline>
</glyph>
<glyph name="exclamdown.ss05" format="2">
	<advance width="314"/>
	<outline>
		<contour>
			<point x="154" y="375" type="move"/>
			<point x="154" y="-125" type="line"/>
		</contour>
		<contour>
			<point x="130" y="555" type="move"/>
			<point x="130" y="488" type="line"/>
			<point x="184" y="488" type="line"/>
		</contour>
	</outline>
</glyph>
<glyph name="five.numr" format="2">
	<advance width="279"/>
	<outline>
		<contour>
			<point x="47.5" y="409" type="move" smooth="yes"/>
			<point x="63.5" y="364.5"/>
			<point x="96.5" y="340"/>
			<point x="138" y="340" type="curve" smooth="yes"/>
			<point x="192.5" y="340"/>
			<point x="233.5" y="382"/>
			<point x="233.5" y="444" type="curve" smooth="yes"/>
			<point x="233.5" y="502.5"/>
			<point x="196.5" y="547.5"/>
			<point x="137" y="547.5" type="curve" smooth="yes"/>
			<point x="114" y="547.5"/>
			<point x="84.5" y="541"/>
			<point x="63.5" y="528" type="curve"/>
			<point x="68.5" y="675" type="line"/>
			<point x="224.5" y="675" type="line"/>
		</contour>
	</outline>
</glyph>
<glyph name="four.dnom" format="2">
	<advance width="285"/>
	<outline>
		<contour>
			<point x="192.5" y="0" type="move"/>
			<point x="192.5" y="334.933" type="line"/>
			<point x="187.5" y="334.933" type="line"/>
			<point x="32.5" y="81.9836" type="line"/>
			<point x="32.5" y="79.984" type="line"/>
			<point x="254.5" y="79.984" type="line"/>
		</contour>
	</outline>
</glyph>
<glyph name="four.numr" format="2">
	<advance width="285"/>
	<outline>
		<contour>
			<point x="192.5" y="340" type="move"/>
			<point x="192.5" y="674.933" type="line"/>
			<point x="187.5" y="674.933" type="line"/>
			<point x="32.5" y="421.9836" type="line"/>
			<point x="32.5" y="419.984" type="line"/>
			<point x="254.5" y="419.984" type="line"/>
		</contour>
	</outline>
</glyph>
<glyph name="four.subs" format="2">
	<advance width="285"/>
	<outline>
		<contour>
			<point x="192.5" y="-65" type="move"/>
			<point x="192.5" y="269.933" type="line"/>
			<point x="187.5" y="269.933" type="line"/>
			<point x="32.5" y="16.9836" type="line"/>
			<point x="32.5" y="14.984" type="line"/>
			<point x="254.5" y="14.984" type="line"/>
		</contour>
	</outline>
</glyph>
<glyph name="i.loclTRK" format="2">
	<advance width="280"/>
	<outline>
		<contour>
			<point x="140" y="0" type="move"/>
			<point x="140" y="555" type="line"/>
		</contour>
		<contour>
			<point x="140" y="678" type="move"/>
			<point x="140" y="785" type="line"/>
		</contour>
	</outline>
</glyph>
<glyph name="l.ss02" format="2">
	<advance width="270"/>
	<outline>
		<contour>
			<point x="140" y="0" type="move"/>
			<point x="140" y="745" type="line"/>
		</contour>
	</outline>
</glyph>
<glyph name="lacute.ss02" format="2">
	<advance width="270"/>
	<outline>
		<contour>
			<point x="140" y="0" type="move"/>
			<point x="140" y="745" type="line"/>
		</contour>
		<contour>
			<point x="141" y="847" type="move"/>
			<point x="276" y="980" type="line"/>
		</contour>
	</outline>
</glyph>
<glyph name="lcaron.ss02" format="2">
	<advance width="270"/>
	<outline>
		<contour>
			<point x="140" y="0" type="move"/>
			<point x="140" y="745" type="line"/>
		</contour>
		<contour>
			<point x="233" y="578" type="move"/>
			<point x="290" y="661" type="line"/>
			<point x="290" y="745" type="line"/>
		</contour>
	</outline>
</glyph>
<glyph name="ldot.ss02" format="2">
	<advance width="315"/>
	<outline>
		<contour>
			<point x="140" y="0" type="move"/>
			<point x="140" y="745" type="line"/>
		</contour>
		<contour>
			<point x="300" y="375" type="move"/>
			<point x="300" y="265" type="line"/>
		</contour>
	</outline>
</glyph>
<glyph name="ldot.ss02.ss04" format="2">
	<advance width="341"/>
	<outline>
		<contour>
			<point x="140" y="0" type="move"/>
			<point x="140" y="745" type="line"/>
		</contour>
		<contour>
			<point x="310" y="357" type="move"/>
			<point x="287" y="357"/>
			<point x="270" y="339"/>
			<point x="270" y="316" type="curve" smooth="yes"/>
			<point x="270" y="293"/>
			<point x="288" y="275"/>
			<point x="311" y="275" type="curve" smooth="yes"/>
			<point x="334" y="275"/>
			<point x="351" y="293"/>
			<point x="351" y="316" type="curve" smooth="yes"/>
			<point x="351" y="339"/>
			<point x="334" y="357"/>
			<point x="312" y="357" type="curve"/>
		</contour>
	</outline>
</glyph>
<glyph name="ldot.ss05" format="2">
	<advance width="371"/>
	<outline>
		<contour>
			<point x="252" y="4" type="move"/>
			<point x="245" y="2"/>
			<point x="234" y="0"/>
			<point x="221" y="0" type="curve" smooth="yes"/>
			<point x="164" y="0"/>
			<point x="135" y="35"/>
			<point x="135" y="107" type="curve" smooth="yes"/>
			<point x="135" y="745" type="line"/>
		</contour>
		<contour>
			<point x="336" y="285" type="move"/>
			<point x="336" y="352" type="line"/>
			<point x="282" y="352" type="line"/>
		</contour>
	</outline>
</glyph>
<glyph name="lslash.ss02" format="2">
	<advance width="307"/>
	<outline>
		<contour>
			<point x="35" y="327" type="move"/>
			<point x="257" y="407" type="line"/>
		</contour>
		<contour>
			<point x="140" y="0" type="move"/>
			<point x="140" y="745" type="line"/>
		</contour>
	</outline>
</glyph>
<glyph name="minus.sups" format="2">
	<advance width="332"/>
	<outline>
		<contour>
			<point x="42.5" y="571" type="move"/>
			<point x="275" y="571" type="line"/>
		</contour>
	</outline>
</glyph>
<glyph name="multiply.numr" format="2">
	<advance width="270"/>
	<outline>
		<contour>
			<point x="230" y="406" type="move"/>
			<point x="40" y="606" type="line"/>
		</contour>
		<contour>
			<point x="40" y="406.5" type="move"/>
			<point x="230" y="606.5" type="line"/>
		</contour>
	</outline>
</glyph>
<glyph name="nine.dnom" format="2">
	<advance width="276"/>
	<outline>
		<contour>
			<point x="95.5" y="0" type="move"/>
			<point x="175" y="106" type="line" smooth="yes"/>
			<point x="216" y="160.5"/>
			<point x="230.5" y="198"/>
			<point x="230.5" y="237.5" type="curve" smooth="yes"/>
			<point x="230.5" y="287.5"/>
			<point x="203.5" y="340"/>
			<point x="129.5" y="340" type="curve" smooth="yes"/>
			<point x="65.5" y="340"/>
			<point x="29.5" y="298"/>
			<point x="29.5" y="241" type="curve" smooth="yes"/>
			<point x="29.5" y="178"/>
			<point x="75" y="139.5"/>
			<point x="126.5" y="139.5" type="curve" smooth="yes"/>
			<point x="161" y="139.5"/>
			<point x="200" y="156"/>
			<point x="223" y="191.5" type="curve" smooth="yes"/>
		</contour>
	</outline>
</glyph>
<glyph name="nine.numr" format="2">
	<advance width="276"/>
	<outline>
		<contour>
			<point x="95.5" y="340" type="move"/>
			<point x="175" y="446" type="line" smooth="yes"/>
			<point x="216" y="500.5"/>
			<point x="230.5" y="538"/>
			<point x="230.5" y="577.5" type="curve" smooth="yes"/>
			<point x="230.5" y="627.5"/>
			<point x="203.5" y="680"/>
			<point x="129.5" y="680" type="curve" smooth="yes"/>
			<point x="65.5" y="680"/>
			<point x="29.5" y="638"/>
			<point x="29.5" y="581" type="curve" smooth="yes"/>
			<point x="29.5" y="518"/>
			<point x="75" y="479.5"/>
			<point x="126.5" y="479.5" type="curve" smooth="yes"/>
			<point x="161" y="479.5"/>
			<point x="200" y="496"/>
			<point x="223" y="531.5" type="curve" smooth="yes"/>
		</contour>
	</outline>
</glyph>
<glyph name="nine.osf" format="2">
	<advance width="572"/>
	<outline>
		<contour>
			<point x="188" y="-131" type="move"/>
			<point x="304" y="-16"/>
			<point x="482" y="207"/>
			<point x="482" y="370" type="curve" smooth="yes"/>
			<point x="482" y="452"/>
			<point x="431" y="575"/>
			<point x="280" y="575" type="curve" smooth="yes"/>
			<point x="152" y="575"/>
			<point x="80" y="483"/>
			<point x="80" y="377" type="curve" smooth="yes"/>
			<point x="80" y="264"/>
			<point x="161" y="174"/>
			<point x="275" y="174" type="curve" smooth="yes"/>
			<point x="344" y="174"/>
			<point x="421" y="207"/>
			<point x="467" y="278" type="curve" smooth="yes"/>
		</contour>
	</outline>
</glyph>
<glyph name="one.subs" format="2">
	<advance width="224"/>
	<outline>
		<contour>
			<point x="144" y="-65" type="move"/>
			<point x="144" y="270" type="line"/>
			<point x="142" y="270" type="line"/>
			<point x="35" y="195" type="line"/>
		</contour>
	</outline>
</glyph>
<glyph name="parenleft.dnom" format="2">
	<advance width="150"/>
	<outline>
		<contour>
			<point x="115" y="-58" type="move" smooth="yes"/>
			<point x="79.5" y="-1"/>
			<point x="50" y="69.5"/>
			<point x="50" y="153.5" type="curve" smooth="yes"/>
			<point x="50" y="237.5"/>
			<point x="72" y="303"/>
			<point x="115" y="365.5" type="curve"/>
		</contour>
	</outline>
</glyph>
<glyph name="period.dnom.ss04" format="2">
	<advance width="151"/>
	<outline>
		<contour>
			<point x="75" y="36" type="move"/>
			<point x="63.5" y="36"/>
			<point x="55" y="27"/>
			<point x="55" y="15.5" type="curve" smooth="yes"/>
			<point x="55" y="4"/>
			<point x="64" y="-5"/>
			<point x="75.5" y="-5" type="curve" smooth="yes"/>
			<point x="87" y="-5"/>
			<point x="95.5" y="4"/>
			<point x="95.5" y="15.5" type="curve" smooth="yes"/>
			<point x="95.5" y="27"/>
			<point x="87" y="36"/>
			<point x="76" y="36" type="curve"/>
		</contour>
	</outline>
</glyph>
<glyph name="period.dnom.ss05" format="2">
	<advance width="137"/>
	<outline>
		<contour>
			<point x="82" y="0" type="move"/>
			<point x="82" y="33.5" type="line"/>
			<point x="55" y="33.5" type="line"/>
		</contour>
	</outline>
</glyph>
<glyph name="period.numr" format="2">
	<advance width="111"/>
	<outline>
		<contour>
			<point x="55" y="385" type="move"/>
			<point x="55" y="330" type="line"/>
		</contour>
	</outline>
</glyph>
<glyph name="period.numr.ss04" format="2">
	<advance width="151"/>
	<outline>
		<contour>
			<point x="75" y="376" type="move"/>
			<point x="63.5" y="376"/>
			<point x="55" y="367"/>
			<point x="55" y="355.5" type="curve" smooth="yes"/>
			<point x="55" y="344"/>
			<point x="64" y="335"/>
			<point x="75.5" y="335" type="curve" smooth="yes"/>
			<point x="87" y="335"/>
			<point x="95.5" y="344"/>
			<point x="95.5" y="355.5" type="curve" smooth="yes"/>
			<point x="95.5" y="367"/>
			<point x="87" y="376"/>
			<point x="76" y="376" type="curve"/>
		</contour>
	</outline>
</glyph>
<glyph name="period.subs.ss04" format="2">
	<advance width="151"/>
	<outline>
		<contour>
			<point x="75" y="-29" type="move"/>
			<point x="63.5" y="-29"/>
			<point x="55" y="-38"/>
			<point x="55" y="-49.5" type="curve" smooth="yes"/>
			<point x="55" y="-61"/>
			<point x="64" y="-70"/>
			<point x="75.5" y="-70" type="curve" smooth="yes"/>
			<point x="87" y="-70"/>
			<point x="95.5" y="-61"/>
			<point x="95.5" y="-49.5" type="curve" smooth="yes"/>
			<point x="95.5" y="-38"/>
			<point x="87" y="-29"/>
			<point x="76" y="-29" type="curve"/>
		</contour>
	</outline>
</glyph>
<glyph name="periodcentered.loclCAT.case" format="2">
	<advance width="0"/>
	<outline>
		<contour>
			<point x="-110" y="390" type="move"/>
			<point x="-110" y="280" type="line"/>
		</contour>
	</outline>
</glyph>
<glyph name="periodcentered.loclCAT.case.ss04" format="2">
	<advance width="1"/>
	<outline>
		<contour>
			<point x="-110" y="372" type="move"/>
			<point x="-133" y="372"/>
			<point x="-150" y="354"/>
			<point x="-150" y="331" type="curve" smooth="yes"/>
			<point x="-150" y="308"/>
			<point x="-132" y="290"/>
			<point x="-109" y="290" type="curve" smooth="yes"/>
			<point x="-86" y="290"/>
			<point x="-69" y="308"/>
			<point x="-69" y="331" type="curve" smooth="yes"/>
			<point x="-69" y="354"/>
			<point x="-86" y="372"/>
			<point x="-108" y="372" type="curve"/>
		</contour>
	</outline>
</glyph>
<glyph name="periodcentered.loclCAT.ss02" format="2">
	<advance width="45"/>
	<outline>
		<contour>
			<point x="30" y="375" type="move"/>
			<point x="30" y="265" type="line"/>
		</contour>
	</outline>
</glyph>
<glyph name="periodcentered.loclCAT.ss02.ss04" format="2">
	<advance width="71"/>
	<outline>
		<contour>
			<point x="40" y="357" type="move"/>
			<point x="17" y="357"/>
			<point x="0" y="339"/>
			<point x="0" y="316" type="curve" smooth="yes"/>
			<point x="0" y="293"/>
			<point x="18" y="275"/>
			<point x="41" y="275" type="curve" smooth="yes"/>
			<point x="64" y="275"/>
			<point x="81" y="293"/>
			<point x="81" y="316" type="curve" smooth="yes"/>
			<point x="81" y="339"/>
			<point x="64" y="357"/>
			<point x="42" y="357" type="curve"/>
		</contour>
	</outline>
</glyph>
<glyph name="periodcentered.ss04" format="2">
	<advance width="301"/>
	<outline>
		<contour>
			<point x="150" y="347" type="move"/>
			<point x="127" y="347"/>
			<point x="110" y="329"/>
			<point x="110" y="306" type="curve" smooth="yes"/>
			<point x="110" y="283"/>
			<point x="128" y="265"/>
			<point x="151" y="265" type="curve" smooth="yes"/>
			<point x="174" y="265"/>
			<point x="191" y="283"/>
			<point x="191" y="306" type="curve" smooth="yes"/>
			<point x="191" y="329"/>
			<point x="174" y="347"/>
			<point x="152" y="347" type="curve"/>
		</contour>
	</outline>
</glyph>
<glyph name="plus.numr" format="2">
	<advance width="332"/>
	<outline>
		<contour>
			<point x="158" y="387.5" type="move"/>
			<point x="158" y="620" type="line"/>
		</contour>
		<contour>
			<point x="42.5" y="506" type="move"/>
			<point x="275" y="506" type="line"/>
		</contour>
	</outline>
</glyph>
<glyph name="plus.sups" format="2">
	<advance width="332"/>
	<outline>
		<contour>
			<point x="158" y="452.5" type="move"/>
			<point x="158" y="685" type="line"/>
		</contour>
		<contour>
			<point x="42.5" y="571" type="move"/>
			<point x="275" y="571" type="line"/>
		</contour>
	</outline>
</glyph>
<glyph name="question.ss04" format="2">
	<advance width="493"/>
	<outline>
		<contour>
			<point x="225" y="180" type="move"/>
			<point x="225" y="242" type="line" smooth="yes"/>
			<point x="225" y="293"/>
			<point x="242" y="325"/>
			<point x="302" y="377" type="curve" smooth="yes"/>
			<point x="342" y="412"/>
			<point x="383" y="463"/>
			<point x="383" y="534" type="curve" smooth="yes"/>
			<point x="383" y="617"/>
			<point x="327" y="680"/>
			<point x="230" y="680" type="curve" smooth="yes"/>
			<point x="164" y="680"/>
			<point x="96" y="650"/>
			<point x="70" y="575" type="curve"/>
		</contour>
		<contour>
			<point x="229" y="72" type="move"/>
			<point x="206" y="72"/>
			<point x="189" y="54"/>
			<point x="189" y="31" type="curve" smooth="yes"/>
			<point x="189" y="8"/>
			<point x="207" y="-10"/>
			<point x="230" y="-10" type="curve" smooth="yes"/>
			<point x="253" y="-10"/>
			<point x="270" y="8"/>
			<point x="270" y="31" type="curve" smooth="yes"/>
			<point x="270" y="54"/>
			<point x="253" y="72"/>
			<point x="231" y="72" type="curve"/>
		</contour>
	</outline>
</glyph>
<glyph name="semicolon.ss04" format="2">
	<advance width="294"/>
	<outline>
		<contour>
			<point x="163" y="535" type="move"/>
			<point x="140" y="535"/>
			<point x="123" y="517"/>
			<point x="123" y="494" type="curve" smooth="yes"/>
			<point x="123" y="471"/>
			<point x="141" y="453"/>
			<point x="164" y="453" type="curve" smooth="yes"/>
			<point x="187" y="453"/>
			<point x="204" y="471"/>
			<point x="204" y="494" type="curve" smooth="yes"/>
			<point x="204" y="517"/>
			<point x="187" y="535"/>
			<point x="165" y="535" type="curve"/>
		</contour>
		<contour>
			<point x="110" y="-142" type="move"/>
			<point x="188" y="13" type="line"/>
			<point x="188" y="67" type="line"/>
			<point x="134" y="67" type="line"/>
		</contour>
	</outline>
</glyph>
<glyph name="semicolon.ss05" format="2">
	<advance width="278"/>
	<outline>
		<contour>
			<point x="188" y="463" type="move"/>
			<point x="188" y="530" type="line"/>
			<point x="134" y="530" type="line"/>
		</contour>
		<contour>
			<point x="110" y="-142" type="move"/>
			<point x="188" y="13" type="line"/>
			<point x="188" y="67" type="line"/>
			<point x="134" y="67" type="line"/>
		</contour>
	</outline>
</glyph>
<glyph name="seven.dnom" format="2">
	<advance width="248"/>
	<outline>
		<contour>
			<point x="63" y="0" type="move"/>
			<point x="222.5" y="333" type="line"/>
			<point x="222.5" y="335" type="line"/>
			<point x="20" y="335" type="line"/>
		</contour>
	</outline>
</glyph>
<glyph name="seven.subs" format="2">
	<advance width="248"/>
	<outline>
		<contour>
			<point x="63" y="-65" type="move"/>
			<point x="222.5" y="268" type="line"/>
			<point x="222.5" y="270" type="line"/>
			<point x="20" y="270" type="line"/>
		</contour>
	</outline>
</glyph>
<glyph name="six.dnom" format="2">
	<advance width="276"/>
	<outline>
		<contour>
			<point x="180" y="340" type="move"/>
			<point x="100.5" y="234" type="line" smooth="yes"/>
			<point x="59.5" y="179.5"/>
			<point x="45" y="142"/>
			<point x="45" y="102.5" type="curve" smooth="yes"/>
			<point x="45" y="52.5"/>
			<point x="72" y="0"/>
			<point x="146" y="0" type="curve" smooth="yes"/>
			<point x="210" y="0"/>
			<point x="246" y="42"/>
			<point x="246" y="99" type="curve" smooth="yes"/>
			<point x="246" y="162"/>
			<point x="200.5" y="200.5"/>
			<point x="149" y="200.5" type="curve" smooth="yes"/>
			<point x="114.5" y="200.5"/>
			<point x="75.5" y="184"/>
			<point x="52.5" y="148.5" type="curve" smooth="yes"/>
		</contour>
	</outline>
</glyph>
<glyph name="three.dnom" format="2">
	<advance width="283"/>
	<outline>
		<contour>
			<point x="37.5" y="61.5" type="move"/>
			<point x="47" y="24.5"/>
			<point x="83" y="-0.5"/>
			<point x="131.5" y="-0.5" type="curve" smooth="yes"/>
			<point x="190.5" y="-0.5"/>
			<point x="228" y="36.5"/>
			<point x="228" y="87.5" type="curve" smooth="yes"/>
			<point x="228" y="132"/>
			<point x="200" y="179.5"/>
			<point x="124.5" y="179.5" type="curve"/>
			<point x="109" y="179.5" type="line"/>
		</contour>
		<contour>
			<point x="124.5" y="179.5" type="move"/>
			<point x="191.5" y="179.5"/>
			<point x="223" y="218"/>
			<point x="223" y="263" type="curve" smooth="yes"/>
			<point x="223" y="304"/>
			<point x="196" y="340"/>
			<point x="136.5" y="340" type="curve" smooth="yes"/>
			<point x="88.5" y="340"/>
			<point x="59.5" y="316"/>
			<point x="45" y="289.5" type="curve"/>
		</contour>
	</outline>
</glyph>
<glyph name="three.numr" format="2">
	<advance width="283"/>
	<outline>
		<contour>
			<point x="37.5" y="401.5" type="move"/>
			<point x="47" y="364.5"/>
			<point x="83" y="339.5"/>
			<point x="131.5" y="339.5" type="curve" smooth="yes"/>
			<point x="190.5" y="339.5"/>
			<point x="228" y="376.5"/>
			<point x="228" y="427.5" type="curve" smooth="yes"/>
			<point x="228" y="472"/>
			<point x="200" y="519.5"/>
			<point x="124.5" y="519.5" type="curve"/>
			<point x="109" y="519.5" type="line"/>
		</contour>
		<contour>
			<point x="124.5" y="519.5" type="move"/>
			<point x="191.5" y="519.5"/>
			<point x="223" y="558"/>
			<point x="223" y="603" type="curve" smooth="yes"/>
			<point x="223" y="644"/>
			<point x="196" y="680"/>
			<point x="136.5" y="680" type="curve" smooth="yes"/>
			<point x="88.5" y="680"/>
			<point x="59.5" y="656"/>
			<point x="45" y="629.5" type="curve"/>
		</contour>
	</outline>
</glyph>
<glyph name="three.subs" format="2">
	<advance width="283"/>
	<outline>
		<contour>
			<point x="37.5" y="-3.5" type="move"/>
			<point x="47" y="-40.5"/>
			<point x="83" y="-65.5"/>
			<point x="131.5" y="-65.5" type="curve" smooth="yes"/>
			<point x="190.5" y="-65.5"/>
			<point x="228" y="-28.5"/>
			<point x="228" y="22.5" type="curve" smooth="yes"/>
			<point x="228" y="67"/>
			<point x="200" y="114.5"/>
			<point x="124.5" y="114.5" type="curve"/>
			<point x="109" y="114.5" type="line"/>
		</contour>
		<contour>
			<point x="124.5" y="114.5" type="move"/>
			<point x="191.5" y="114.5"/>
			<point x="223" y="153"/>
			<point x="223" y="198" type="curve" smooth="yes"/>
			<point x="223" y="239"/>
			<point x="196" y="275"/>
			<point x="136.5" y="275" type="curve" smooth="yes"/>
			<point x="88.5" y="275"/>
			<point x="59.5" y="251"/>
			<point x="45" y="224.5" type="curve"/>
		</contour>
	</outline>
</glyph>
<glyph name="two.dnom" format="2">
	<advance width="275"/>
	<outline>
		<contour>
			<point x="232.5" y="0" type="move"/>
			<point x="32.5" y="0" type="line"/>
			<point x="32.5" y="2" type="line"/>
			<point x="144" y="124.5" type="line" smooth="yes"/>
			<point x="182" y="166.5"/>
			<point x="220" y="206"/>
			<point x="220" y="259.5" type="curve" smooth="yes"/>
			<point x="220" y="314"/>
			<point x="180.5" y="340"/>
			<point x="137" y="340" type="curve" smooth="yes"/>
			<point x="93" y="340"/>
			<point x="56.5" y="314"/>
			<point x="42" y="271" type="curve"/>
		</contour>
	</outline>
</glyph>
<glyph name="zero.dnom" format="2">
	<advance width="311"/>
	<outline>
		<contour>
			<point x="155" y="340" type="move"/>
			<point x="81" y="340"/>
			<point x="45" y="263.5"/>
			<point x="45" y="168.5" type="curve" smooth="yes"/>
			<point x="45" y="72.5"/>
			<point x="81" y="0"/>
			<point x="155.5" y="0" type="curve" smooth="yes"/>
			<point x="230" y="0"/>
			<point x="266" y="72.5"/>
			<point x="266" y="168.5" type="curve" smooth="yes"/>
			<point x="266" y="263.5"/>
			<point x="230" y="340"/>
			<point x="156" y="340" type="curve"/>
		</contour>
	</outline>
</glyph>
<glyph name="zero.subs" format="2">
	<advance width="311"/>
	<outline>
		<contour>
			<point x="155" y="275" type="move"/>
			<point x="81" y="275"/>
			<point x="45" y="199"/>
			<point x="45" y="104" type="curve" smooth="yes"/>
			<point x="45" y="8"/>
			<point x="81" y="-65"/>
			<point x="156" y="-65" type="curve" smooth="yes"/>
			<point x="230" y="-65"/>
			<point x="266" y="8"/>
			<point x="266" y="104" type="curve" smooth="yes"/>
			<point x="266" y="199"/>
			<point x="230" y="275"/>
			<point x="156" y="275" type="curve"/>
		</contour>
	</outline>
</glyph>
<glyph name="zero.subs.zero" format="2">
	<advance width="311"/>
	<outline>
		<contour>
			<point x="79" y="-25.5" type="move"/>
			<point x="234.5" y="231" type="line"/>
		</contour>
		<contour>
			<point x="155" y="275" type="move"/>
			<point x="81" y="275"/>
			<point x="45" y="198.5"/>
			<point x="45" y="103.5" type="curve" smooth="yes"/>
			<point x="45" y="7.5"/>
			<point x="81" y="-65"/>
			<point x="155.5" y="-65" type="curve" smooth="yes"/>
			<point x="230" y="-65"/>
			<point x="266" y="7.5"/>
			<point x="266" y="103.5" type="curve" smooth="yes"/>
			<point x="266" y="198.5"/>
			<point x="230" y="275"/>
			<point x="156" y="275" type="curve"/>
		</contour>
	</outline>
</glyph>
<glyph name="zero.zero" format="2">
	<advance width="622"/>
	<outline>
		<contour>
			<point x="158" y="79" type="move"/>
			<point x="469" y="592" type="line"/>
		</contour>
		<contour>
			<point x="310" y="680" type="move"/>
			<point x="162" y="680"/>
			<point x="90" y="527"/>
			<point x="90" y="337" type="curve" smooth="yes"/>
			<point x="90" y="145"/>
			<point x="162" y="0"/>
			<point x="311" y="0" type="curve" smooth="yes"/>
			<point x="460" y="0"/>
			<point x="532" y="145"/>
			<point x="532" y="337" type="curve" smooth="yes"/>
			<point x="532" y="527"/>
			<point x="460" y="680"/>
			<point x="312" y="680" type="curve"/>
		</contour>
	</outline>
</glyph>
